<svg width="28" height="28" viewBox="0 0 28 28" fill="#ffffff" xmlns="http://www.w3.org/2000/svg">
<path d="M27.0479 18.5728L23.332 6.18652C23.2576 5.93685 23.1283 5.70701 22.9534 5.51386C22.7786 5.32071 22.5627 5.16917 22.3217 5.07034L22.2629 5.08818L22.323 5.06719C21.1034 4.56992 19.8383 4.19237 18.5457 3.93985C18.433 3.91744 18.317 3.91745 18.2043 3.93988C18.0916 3.96231 17.9844 4.00672 17.8888 4.07057C17.7933 4.13442 17.7113 4.21646 17.6474 4.31201C17.5836 4.40756 17.5392 4.51475 17.5168 4.62745C17.4944 4.74015 17.4944 4.85617 17.5168 4.96887C17.5393 5.08157 17.5837 5.18875 17.6475 5.28429C17.7114 5.37983 17.7934 5.46185 17.889 5.52569C17.9845 5.58952 18.0917 5.63391 18.2044 5.65631C18.6949 5.75383 19.1756 5.86858 19.6465 6.00057C19.8309 6.09163 19.9772 6.2449 20.0596 6.43335C20.142 6.62179 20.1552 6.83329 20.0969 7.03051C20.0385 7.22774 19.9124 7.39802 19.7407 7.51129C19.5691 7.62457 19.3629 7.67356 19.1586 7.64963C15.8136 6.7903 12.3066 6.7834 8.95822 7.62955C8.75018 7.68071 8.53059 7.65371 8.34114 7.55368C8.15168 7.45364 8.00554 7.28754 7.93046 7.08689C7.85537 6.88624 7.85655 6.665 7.93379 6.46517C8.01102 6.26533 8.15894 6.1008 8.34945 6.00281L8.35319 6.00409C8.8238 5.87228 9.30508 5.75737 9.79701 5.65936C10.0246 5.61407 10.2249 5.48024 10.3538 5.2873C10.4827 5.09436 10.5297 4.85812 10.4845 4.63052C10.4392 4.40293 10.3054 4.20263 10.1125 4.07367C9.91959 3.94472 9.68335 3.89768 9.45575 3.9429C8.1631 4.19544 6.89804 4.57299 5.67841 5.07024C5.43736 5.16908 5.2215 5.32063 5.04665 5.51377C4.87181 5.70692 4.74242 5.93675 4.66798 6.18642L0.95211 18.5728C0.856117 18.8969 0.855473 19.2417 0.950255 19.5662C1.04504 19.8906 1.23124 20.1809 1.4866 20.4023C1.591 20.4931 1.69803 20.5822 1.80655 20.6704C1.80911 20.6725 1.8113 20.6749 1.81386 20.677C3.58907 22.117 5.9158 23.2172 8.54246 23.8584C8.76789 23.9134 9.00596 23.8767 9.20429 23.7562C9.40262 23.6357 9.54496 23.4413 9.6 23.2159C9.65504 22.9905 9.61828 22.7524 9.49779 22.5541C9.3773 22.3558 9.18296 22.2134 8.95753 22.1584C7.77624 21.8744 6.62758 21.4688 5.52994 20.948L5.53715 20.9485C5.38324 20.809 5.28402 20.6192 5.25725 20.4132C5.23049 20.2072 5.27792 19.9983 5.39107 19.8241C5.50422 19.6499 5.67569 19.5216 5.87478 19.4622C6.07388 19.4029 6.2876 19.4163 6.47768 19.5002C8.55421 20.4251 11.1631 21 14 21C16.8369 21 19.4476 20.4244 21.5241 19.4995C21.7142 19.4161 21.9278 19.4031 22.1266 19.4627C22.3254 19.5223 22.4966 19.6507 22.6094 19.825C22.7223 19.9992 22.7695 20.2079 22.7427 20.4137C22.7158 20.6195 22.6166 20.8091 22.4628 20.9485L22.47 20.948C21.3724 21.4688 20.2237 21.8744 19.0425 22.1584C18.817 22.2134 18.6227 22.3558 18.5022 22.5541C18.3817 22.7524 18.3449 22.9905 18.4 23.2159C18.455 23.4413 18.5974 23.6357 18.7957 23.7562C18.994 23.8767 19.2321 23.9134 19.4575 23.8584C22.0842 23.2172 24.4109 22.117 26.1861 20.677C26.1888 20.6749 26.191 20.6724 26.1936 20.6702H26.1937C26.3021 20.5821 26.4091 20.4929 26.5135 20.4022C26.7688 20.1808 26.955 19.8905 27.0497 19.5661C27.1445 19.2417 27.1439 18.8969 27.0479 18.5728ZM10.5 17.0625C10.2404 17.0625 9.98665 16.9855 9.77081 16.8413C9.55497 16.6971 9.38674 16.4921 9.2874 16.2523C9.18806 16.0124 9.16207 15.7485 9.21271 15.4939C9.26335 15.2393 9.38836 15.0055 9.57191 14.8219C9.75547 14.6384 9.98934 14.5134 10.2439 14.4627C10.4985 14.4121 10.7624 14.4381 11.0023 14.5374C11.2421 14.6367 11.4471 14.805 11.5913 15.0208C11.7355 15.2367 11.8125 15.4904 11.8125 15.75C11.8125 16.0981 11.6742 16.4319 11.4281 16.6781C11.1819 16.9242 10.8481 17.0625 10.5 17.0625ZM17.5 17.0625C17.2404 17.0625 16.9866 16.9855 16.7708 16.8413C16.555 16.6971 16.3867 16.4921 16.2874 16.2523C16.1881 16.0124 16.1621 15.7485 16.2127 15.4939C16.2634 15.2393 16.3884 15.0055 16.5719 14.8219C16.7555 14.6384 16.9893 14.5134 17.2439 14.4627C17.4985 14.4121 17.7624 14.4381 18.0023 14.5374C18.2421 14.6367 18.4471 14.805 18.5913 15.0208C18.7355 15.2367 18.8125 15.4904 18.8125 15.75C18.8125 16.0981 18.6742 16.4319 18.4281 16.6781C18.1819 16.9242 17.8481 17.0625 17.5 17.0625Z"/>
</svg>
