<svg width="60" height="60" viewBox="0 0 60 60" fill="none" xmlns="http://www.w3.org/2000/svg">
<path d="M50.625 16.8751H42.4295C43.6498 15.3863 44.2509 13.4853 44.1084 11.5655C43.9659 9.64581 43.0907 7.85438 41.6639 6.56209C40.2372 5.2698 38.3681 4.57559 36.4437 4.62316C34.5193 4.67074 32.6868 5.45646 31.3257 6.81768C30.7828 7.38344 30.3351 8.03337 30 8.74223C29.6647 8.03335 29.217 7.38339 28.6741 6.81756C27.3129 5.45637 25.4805 4.67069 23.5561 4.62314C21.6317 4.57559 19.7626 5.26983 18.3359 6.56214C16.9092 7.85445 16.034 9.64587 15.8915 11.5656C15.749 13.4853 16.3502 15.3863 17.5705 16.8751H9.375C8.38078 16.8762 7.42761 17.2717 6.72459 17.9747C6.02158 18.6777 5.62613 19.6309 5.625 20.6251V28.1251C5.62613 29.1193 6.02158 30.0725 6.72459 30.7755C7.42761 31.4785 8.38078 31.874 9.375 31.8751V46.8751C9.37614 47.8693 9.77159 48.8225 10.4746 49.5255C11.1776 50.2285 12.1308 50.624 13.125 50.6251H46.875C47.8692 50.624 48.8224 50.2285 49.5254 49.5255C50.2284 48.8225 50.6239 47.8693 50.625 46.8751V31.8751C51.6192 31.874 52.5724 31.4785 53.2754 30.7755C53.9784 30.0725 54.3739 29.1193 54.375 28.1251V20.6251C54.3739 19.6309 53.9784 18.6777 53.2754 17.9747C52.5724 17.2717 51.6192 16.8762 50.625 16.8751ZM33.9773 9.46933C34.3255 9.12096 34.7389 8.8446 35.1939 8.65602C35.6489 8.46744 36.1366 8.37035 36.6291 8.37028C37.1217 8.37021 37.6094 8.46718 38.0645 8.65563C38.5195 8.84409 38.933 9.12034 39.2813 9.46862C39.6296 9.81689 39.9058 10.2304 40.0943 10.6854C40.2828 11.1405 40.3797 11.6282 40.3797 12.1208C40.3796 12.6133 40.2826 13.101 40.094 13.556C39.9054 14.011 39.6291 14.4244 39.2807 14.7726C38.1228 15.9307 34.7747 16.581 31.9549 16.7952C32.1691 13.9751 32.8194 10.6273 33.9773 9.46933ZM20.7191 9.46933C21.4229 8.76714 22.3765 8.37278 23.3708 8.37277C24.365 8.37276 25.3186 8.7671 26.0225 9.46927C27.1806 10.6274 27.8309 13.9754 28.0451 16.7951C25.2251 16.5809 21.8772 15.9306 20.7193 14.7726C20.0171 14.0688 19.6227 13.1152 19.6227 12.121C19.6227 11.1268 20.0169 10.1732 20.7191 9.46933ZM50.625 28.1251H31.875V45.0001C31.875 45.4974 31.6775 45.9743 31.3258 46.3259C30.9742 46.6775 30.4973 46.8751 30 46.8751C29.5027 46.8751 29.0258 46.6775 28.6742 46.3259C28.3225 45.9743 28.125 45.4974 28.125 45.0001V28.1251H9.375V20.6251H28.125V28.1251H31.875V20.6251H50.625L50.6273 28.125L50.625 28.1251Z" fill="white"/>
</svg>
