<svg width="200" height="130" viewBox="0 0 200 130" fill="none" xmlns="http://www.w3.org/2000/svg">
<rect width="200" height="130" fill="white"/>
<path d="M195.685 47.9443L135.906 2.91849C130.749 -0.97283 121.871 -0.97283 116.696 2.91849L100.47 15.043L84.2577 2.91849C79.087 -0.97283 70.2427 -0.97283 65.0789 2.91849L5.27036 47.9443C3.95484 48.8312 2.8779 50.0244 2.13353 51.4198C1.38917 52.8152 1 54.3703 1 55.9494C1 57.5285 1.38917 59.0836 2.13353 60.479C2.8779 61.8744 3.95484 63.0676 5.27036 63.9545L40.3527 90.3063L44.3143 93.2721L60.7592 105.634L64.6853 108.585L89.1049 126.918C91.722 128.825 94.8769 129.866 98.1228 129.893C98.8969 129.96 99.6918 130 100.508 130C101.336 130 102.143 129.96 102.928 129.89C106.142 129.856 109.264 128.816 111.85 126.918L136.27 108.571L140.205 105.62L156.657 93.2643L160.619 90.2985L195.685 63.9545C197.013 63.0761 198.101 61.8858 198.853 60.4893C199.606 59.0929 200 57.5334 200 55.9494C200 54.3654 199.606 52.806 198.853 51.4095C198.101 50.013 197.013 48.8227 195.685 47.9443V47.9443ZM111.955 90.2985L100.498 98.9077L89.02 90.2985L85.093 87.3338L68.6539 74.9791L64.7002 72.0134L48.5155 59.8468C47.7994 59.3808 47.2046 58.7529 46.7799 58.0147C46.3551 57.2765 46.1124 56.4488 46.0717 55.5995C46.1158 54.7558 46.357 53.9337 46.7761 53.1985C47.1953 52.4633 47.781 51.835 48.4869 51.3634L67.5937 36.9158C71.0355 34.2997 77.5416 34.2997 81.0248 36.9158L89.4688 43.2987C91.5115 44.791 93.9014 45.7456 96.4157 46.0735L96.1996 46.0813C99.1354 46.4583 102.112 46.3846 105.025 45.8629C105.225 45.8321 105.424 45.8017 105.621 45.764C105.691 45.7517 105.757 45.7424 105.827 45.7297L105.767 45.7317C107.832 45.3543 109.785 44.523 111.485 43.2987L119.961 36.9158C123.416 34.2997 129.92 34.2997 133.362 36.9432L152.471 51.3634C153.215 51.7977 153.832 52.4176 154.26 53.1616C154.689 53.9056 154.914 54.7479 154.914 55.6051C154.914 56.4623 154.689 57.3046 154.26 58.0486C153.832 58.7926 153.215 59.4124 152.471 59.8468L136.285 72.0134L132.324 74.9791L115.882 87.3416L111.955 90.2985ZM116.313 116.336L106.511 124.894L94.0645 124.9L85.3435 116.359L100.561 104.831L100.745 104.962L116.313 116.336ZM113.174 122.913L113.608 122.566C113.475 122.704 113.335 122.837 113.193 122.971C113.186 122.951 113.182 122.931 113.174 122.913ZM106.439 40.6513L106.435 40.6527L93.9905 40.6597L85.3958 32.4094L100.454 21.0185L115.706 32.7213L106.439 40.6513ZM8.14417 60.2093C7.4061 59.7677 6.79606 59.1435 6.37374 58.3976C5.95141 57.6518 5.73127 56.8098 5.73484 55.9541C5.73842 55.0984 5.96558 54.2583 6.39412 53.5159C6.82265 52.7735 7.43788 52.1544 8.17962 51.7189L67.9467 6.70009C69.916 5.30649 72.2847 4.57979 74.7023 4.62761C77.0965 4.58274 79.4409 5.30991 81.3839 6.70009L96.5221 18.0019L96.5409 18.0165L79.4371 30.9603C74.5149 29.52 68.5671 30.2507 64.7278 33.1694L45.6071 47.574C44.2797 48.4574 43.1918 49.652 42.4394 51.052C41.6871 52.4521 41.2936 54.0147 41.2936 55.6017C41.2936 57.1887 41.6871 58.7512 42.4394 60.1513C43.1918 61.5514 44.2797 62.7459 45.6071 63.6294L60.7385 74.9988L44.2926 87.3543L8.14417 60.2093ZM48.2413 90.319L64.6933 77.9635L81.1393 90.319L64.6853 102.683L48.2413 90.319ZM85.0575 93.2721L96.537 101.887L96.5508 101.897L80.1708 114.308L68.6135 105.634L85.0575 93.2721ZM121.167 114.022L104.508 101.84L115.903 93.2721L132.351 105.62L121.167 114.022ZM136.27 102.669L119.834 90.319L136.285 77.9575L152.737 90.3063L136.27 102.669ZM192.819 60.2093L156.685 87.3416L140.233 74.9791L155.35 63.6294C156.676 62.7454 157.762 61.5517 158.514 60.1532C159.266 58.7548 159.66 57.1943 159.663 55.609C159.666 54.0236 159.277 52.4618 158.529 51.0608C157.782 49.6598 156.7 48.4625 155.378 47.574L136.27 33.1694C133.483 31.141 130.103 30.0749 126.648 30.1341C124.817 30.1307 122.997 30.4203 121.259 30.9916L104.384 18.0454L104.432 18.0097L119.573 6.70009C123.05 4.09876 129.555 4.09876 133.04 6.70009L192.819 51.7189C193.55 52.1649 194.153 52.7892 194.571 53.5324C194.989 54.2755 195.209 55.1127 195.209 55.9641C195.209 56.8155 194.989 57.6527 194.571 58.3958C194.153 59.139 193.55 59.7633 192.819 60.2093V60.2093Z" fill="url(#paint0_linear_105:15)"/>
<defs>
<linearGradient id="paint0_linear_105:15" x1="101.046" y1="-9.14387" x2="99.49" y2="178.908" gradientUnits="userSpaceOnUse">
<stop offset="0.12245" stop-color="#500F82"/>
<stop offset="0.81633" stop-color="#A973B6"/>
</linearGradient>
</defs>
</svg>
