<svg id="logo" xmlns="http://www.w3.org/2000/svg" xmlns:xlink="http://www.w3.org/1999/xlink" viewBox="0 0 556.71589 129.61843"><defs><style>.cls-1{fill:url(#linear-gradient);}.cls-2{fill:#ffffff;}</style><linearGradient id="linear-gradient" x1="111.22002" y1="1.38564" x2="109.6577" y2="188.88494" gradientUnits="userSpaceOnUse"><stop offset="0.12245" stop-color="#500f82"/><stop offset="0.81633" stop-color="#a973b6"/></linearGradient></defs><path class="cls-1" d="M204.93359,58.3062l-59.1943-44.8936c-5.1065-3.8799-13.8985-3.8799-19.0225,0l-16.0674,12.0889L94.59569,13.4126c-5.1201-3.8799-13.8779-3.8799-18.9912,0L16.3809,58.3062a9.64714,9.64714,0,0,0,0,15.9633l34.73919,26.2744L55.043,103.501l16.28409,12.3252,3.8877,2.9424,24.1807,18.2793a15.318,15.318,0,0,0,8.9297,2.9667c.7666.0665,1.5537.1065,2.3623.1065.8193,0,1.6191-.04,2.39551-.1094a15.139,15.139,0,0,0,8.835-2.9638l24.18159-18.293,3.8965-2.9424,16.291-12.3193,3.92291-2.9571,34.72359-26.2666a9.59169,9.59169,0,0,0,0-15.9633Zm-82.9111,42.2299-11.3457,8.584-11.3653-8.584-3.8886-2.956L79.14449,85.2617l-3.915-2.957L59.20309,70.1738a5.36846,5.36846,0,0,1-2.4199-4.2348,5.42965,5.42965,0,0,1,2.3916-4.2237l18.9199-14.4052c3.4082-2.6084,9.8506-2.6084,13.2998,0l8.3614,6.3642a14.87774,14.87774,0,0,0,6.8789,2.7666l-.2139.0078a28.5903,28.5903,0,0,0,8.7393-.2177c.1982-.0308.3945-.0611.58981-.0987.06929-.0122.13479-.0215.20409-.0342l-.0596.002a13.94092,13.94092,0,0,0,5.6621-2.4258l8.3936-6.3642c3.4209-2.6084,9.8613-2.6084,13.2695.0273l18.9219,14.3779a4.90567,4.90567,0,0,1,0,8.4585l-16.0273,12.1309-3.9219,2.957-16.2813,12.3262Zm4.3154,25.961-9.7061,8.5332-12.3252.0058-8.6357-8.5156,15.0684-11.4941.1826.1299Zm-3.1084,6.5576.4297-.3457c-.1319.1377-.2705.2705-.41119.4033C123.24119,133.0928,123.23729,133.0732,123.22949,133.0547Zm-6.669-82.02-.0048.0014-12.3223.0069-8.5107-8.2261,14.9111-11.3574,15.1025,11.6684ZM19.2266,70.5352a4.929,4.929,0,0,1,.0351-8.4654L78.44429,17.1831a11.14483,11.14483,0,0,1,6.6895-2.0664A10.96465,10.96465,0,0,1,91.75,17.1831l14.99019,11.2686.0186.0146L89.82229,41.3721c-4.8741-1.4361-10.7637-.7075-14.5655,2.2026L56.32319,57.937a9.63516,9.63516,0,0,0,0,16.0083l14.9834,11.336L55.02149,97.6006Zm39.705,30.0214,16.2911-12.3193,16.2851,12.3193-16.293,12.3272Zm36.4561,2.9444,11.3672,8.5898.0137.0098-16.2198,12.375-11.4443-8.6494Zm35.7559,20.6894-16.4952-12.1465,11.2832-8.5429,16.2872,12.3115Zm14.956-11.3203-16.2754-12.3135,16.2901-12.3252,16.291,12.3125Zm55.9961-42.3349-35.7812,27.0527-16.2911-12.3262,14.9698-11.3164a9.65355,9.65355,0,0,0,.0273-16.0083l-18.9209-14.3623a15.66521,15.66521,0,0,0-9.5283-3.0264,16.88231,16.88231,0,0,0-5.3359.855l-16.71-12.9082.0469-.0356,14.9931-11.2764c3.4434-2.5937,9.8848-2.5937,13.336,0l59.1943,44.8867a4.96885,4.96885,0,0,1,0,8.4654Z" transform="translate(-12.1523 -10.50267)"/><path class="cls-1" d="M204.93359,58.3062l-59.1943-44.8936c-5.1065-3.8799-13.8985-3.8799-19.0225,0l-16.0674,12.0889L94.59569,13.4126c-5.1201-3.8799-13.8779-3.8799-18.9912,0L16.3809,58.3062a9.64714,9.64714,0,0,0,0,15.9633l34.73919,26.2744L55.043,103.501l16.28409,12.3252,3.8877,2.9424,24.1807,18.2793a15.318,15.318,0,0,0,8.9297,2.9667c.7666.0665,1.5537.1065,2.3623.1065.8193,0,1.6191-.04,2.39551-.1094a15.139,15.139,0,0,0,8.835-2.9638l24.18159-18.293,3.8965-2.9424,16.291-12.3193,3.92291-2.9571,34.72359-26.2666a9.59169,9.59169,0,0,0,0-15.9633Zm-82.9111,42.2299-11.3457,8.584-11.3653-8.584-3.8886-2.956L79.14449,85.2617l-3.915-2.957L59.20309,70.1738a5.36846,5.36846,0,0,1-2.4199-4.2348,5.42965,5.42965,0,0,1,2.3916-4.2237l18.9199-14.4052c3.4082-2.6084,9.8506-2.6084,13.2998,0l8.3614,6.3642a14.87774,14.87774,0,0,0,6.8789,2.7666l-.2139.0078a28.5903,28.5903,0,0,0,8.7393-.2177c.1982-.0308.3945-.0611.58981-.0987.06929-.0122.13479-.0215.20409-.0342l-.0596.002a13.94092,13.94092,0,0,0,5.6621-2.4258l8.3936-6.3642c3.4209-2.6084,9.8613-2.6084,13.2695.0273l18.9219,14.3779a4.90567,4.90567,0,0,1,0,8.4585l-16.0273,12.1309-3.9219,2.957-16.2813,12.3262Zm4.3154,25.961-9.7061,8.5332-12.3252.0058-8.6357-8.5156,15.0684-11.4941.1826.1299Zm-3.1084,6.5576.4297-.3457c-.1319.1377-.2705.2705-.41119.4033C123.24119,133.0928,123.23729,133.0732,123.22949,133.0547Zm-6.669-82.02-.0048.0014-12.3223.0069-8.5107-8.2261,14.9111-11.3574,15.1025,11.6684ZM19.2266,70.5352a4.929,4.929,0,0,1,.0351-8.4654L78.44429,17.1831a11.14483,11.14483,0,0,1,6.6895-2.0664A10.96465,10.96465,0,0,1,91.75,17.1831l14.99019,11.2686.0186.0146L89.82229,41.3721c-4.8741-1.4361-10.7637-.7075-14.5655,2.2026L56.32319,57.937a9.63516,9.63516,0,0,0,0,16.0083l14.9834,11.336L55.02149,97.6006Zm39.705,30.0214,16.2911-12.3193,16.2851,12.3193-16.293,12.3272Zm36.4561,2.9444,11.3672,8.5898.0137.0098-16.2198,12.375-11.4443-8.6494Zm35.7559,20.6894-16.4952-12.1465,11.2832-8.5429,16.2872,12.3115Zm14.956-11.3203-16.2754-12.3135,16.2901-12.3252,16.291,12.3125Zm55.9961-42.3349-35.7812,27.0527-16.2911-12.3262,14.9698-11.3164a9.65355,9.65355,0,0,0,.0273-16.0083l-18.9209-14.3623a15.66521,15.66521,0,0,0-9.5283-3.0264,16.88231,16.88231,0,0,0-5.3359.855l-16.71-12.9082.0469-.0356,14.9931-11.2764c3.4434-2.5937,9.8848-2.5937,13.336,0l59.1943,44.8867a4.96885,4.96885,0,0,1,0,8.4654Z" transform="translate(-12.1523 -10.50267)"/><path class="cls-2" d="M256.99609,80.8594a2.15542,2.15542,0,0,1,0,4.3095h-18.8032a2.2765,2.2765,0,0,1-2.2632-2.2626V49.394a2.29128,2.29128,0,0,1,4.5796,0V80.8594Z" transform="translate(-12.1523 -10.50267)"/><path class="cls-2" d="M271.64649,66.3125c0-10.938,8.0278-19.397,19.2348-19.397,10.9375,0,19.2349,7.9199,19.2349,19.397,0,11.2061-8.2974,19.3955-19.2349,19.3955S271.64649,77.7881,271.64649,66.3125Zm4.8491,0c0,8.5664,6.3037,15.085,14.3857,15.085,8.62071,0,14.3858-6.5733,14.3858-15.085,0-8.7827-6.3042-15.0869-14.3858-15.0869C282.69189,51.2256,276.49559,57.5298,276.49559,66.3125Z" transform="translate(-12.1523 -10.50267)"/><path class="cls-2" d="M324.98139,47.1851c1.1319,0,1.7784.5922,2.2627,1.7778l12.1768,29.5254,11.8535-29.5254c.5391-1.293,1.18561-1.7778,2.1553-1.7778a2.04007,2.04007,0,0,1,2.15531,2.0473,3.20654,3.20654,0,0,1-.21591.916l-13.7392,33.6729a2.31563,2.31563,0,0,1-2.3164,1.7246,2.52688,2.52688,0,0,1-2.3711-1.7246l-14.0088-33.4038a3.15519,3.15519,0,0,1-.2148-.9697A2.17633,2.17633,0,0,1,324.98139,47.1851Z" transform="translate(-12.1523 -10.50267)"/><path class="cls-2" d="M392.64839,80.8594a2.15542,2.15542,0,0,1,0,4.3095h-17.457a2.27607,2.27607,0,0,1-2.2627-2.2626V49.7173a2.27652,2.27652,0,0,1,2.2627-2.2632h16.918a2.15594,2.15594,0,0,1,0,4.3105h-14.6006V63.9414h12.9844a2.156,2.156,0,0,1,0,4.3106h-12.9844V80.8594Z" transform="translate(-12.1523 -10.50267)"/><path class="cls-2" d="M435.74708,80.8594a2.15542,2.15542,0,0,1,0,4.3095H416.94339a2.27607,2.27607,0,0,1-2.2627-2.2626V49.394a2.29148,2.29148,0,0,1,4.58,0V80.8594Z" transform="translate(-12.1523 -10.50267)"/><path class="cls-2" d="M476.36718,73.7471h-17.1875l-4.3106,10.291a2.15045,2.15045,0,0,1-4.20208-.5938,3.12808,3.12808,0,0,1,.21578-.9687l14.4395-33.459a2.80765,2.80765,0,0,1,2.6396-1.8315,2.75865,2.75865,0,0,1,2.586,1.8315l14.3857,33.2969a2.72117,2.72117,0,0,1,.1621.916,2.20716,2.20716,0,0,1-2.209,2.3164,2.31945,2.31945,0,0,1-2.1553-1.5078Zm-8.5664-20.42-6.7891,16.1104h13.5772Z" transform="translate(-12.1523 -10.50267)"/><path class="cls-2" d="M525.01458,52.9497a15.74768,15.74768,0,0,0-7.6503-1.7241c-8.1895,0-14.0088,6.1426-14.0088,15.0869,0,8.9971,5.9804,15.085,14.709,15.085a14.761,14.761,0,0,0,7.81252-2.1006,2.55706,2.55706,0,0,1,1.34658-.378,2.0067,2.0067,0,0,1,1.6162.7549,1.64617,1.64617,0,0,1,.378,1.0772,2.38421,2.38421,0,0,1-1.0244,1.832,18.66113,18.66113,0,0,1-10.5596,3.125c-11.3145,0-19.127-7.6504-19.127-19.3955,0-10.8301,7.0039-19.397,18.8037-19.397a19.47886,19.47886,0,0,1,9.9131,2.5323,2.17745,2.17745,0,0,1,1.1319,1.832,2.09112,2.09112,0,0,1-2.0479,1.9936A2.86933,2.86933,0,0,1,525.01458,52.9497Z" transform="translate(-12.1523 -10.50267)"/><path class="cls-2" d="M566.76658,80.8594a2.15542,2.15542,0,0,1,0,4.3095h-17.457a2.27607,2.27607,0,0,1-2.2627-2.2626V49.7173a2.27652,2.27652,0,0,1,2.2627-2.2632h16.9179a2.15593,2.15593,0,0,1,0,4.3105H551.627V63.9414h12.98428a2.156,2.156,0,0,1,0,4.3106H551.627V80.8594Z" transform="translate(-12.1523 -10.50267)"/></svg>