<svg width="32" height="32" viewBox="0 0 32 32" fill="none" xmlns="http://www.w3.org/2000/svg">
<path d="M16.0002 2.99994C13.429 2.99994 10.9156 3.76238 8.77778 5.19083C6.63994 6.61929 4.97369 8.64962 3.98976 11.0251C3.00582 13.4005 2.74837 16.0144 3.24998 18.5361C3.75159 21.0579 4.98972 23.3742 6.8078 25.1923C8.62588 27.0104 10.9423 28.2485 13.464 28.7501C15.9858 29.2518 18.5996 28.9943 20.9751 28.0104C23.3505 27.0264 25.3808 25.3602 26.8093 23.2224C28.2378 21.0845 29.0002 18.5711 29.0002 15.9999C28.9963 12.5533 27.6254 9.24899 25.1883 6.81186C22.7511 4.37473 19.4468 3.00384 16.0002 2.99994ZM16.0003 24C15.7036 24 15.4136 23.912 15.1669 23.7472C14.9202 23.5824 14.728 23.3481 14.6144 23.074C14.5009 22.7999 14.4712 22.4983 14.5291 22.2073C14.587 21.9164 14.7298 21.6491 14.9396 21.4393C15.1494 21.2295 15.4166 21.0867 15.7076 21.0288C15.9986 20.9709 16.3002 21.0006 16.5743 21.1142C16.8484 21.2277 17.0826 21.42 17.2475 21.6666C17.4123 21.9133 17.5003 22.2033 17.5003 22.5C17.5003 22.8978 17.3422 23.2793 17.0609 23.5606C16.7796 23.8419 16.3981 24 16.0003 24ZM17.0002 17.8886V18.0005C17.0002 18.2658 16.8948 18.5201 16.7073 18.7077C16.5198 18.8952 16.2654 19.0005 16.0002 19.0005C15.735 19.0005 15.4806 18.8952 15.2931 18.7077C15.1056 18.5201 15.0002 18.2658 15.0002 18.0005V17.0005C15.0002 16.7353 15.1056 16.481 15.2931 16.2935C15.4806 16.1059 15.735 16.0006 16.0002 16.0005C16.4946 16.0005 16.978 15.8539 17.3891 15.5792C17.8002 15.3045 18.1207 14.9141 18.3099 14.4573C18.4991 14.0004 18.5486 13.4978 18.4522 13.0128C18.3557 12.5279 18.1176 12.0824 17.768 11.7328C17.4183 11.3832 16.9729 11.145 16.4879 11.0486C16.003 10.9521 15.5003 11.0016 15.0435 11.1908C14.5867 11.3801 14.1962 11.7005 13.9215 12.1116C13.6468 12.5227 13.5002 13.0061 13.5002 13.5005C13.5002 13.7658 13.3948 14.0201 13.2073 14.2077C13.0198 14.3952 12.7654 14.5005 12.5002 14.5005C12.235 14.5005 11.9806 14.3952 11.7931 14.2077C11.6056 14.0201 11.5002 13.7658 11.5002 13.5005C11.5003 12.6535 11.7395 11.8236 12.1903 11.1064C12.6411 10.3892 13.2852 9.81384 14.0484 9.44643C14.8117 9.07902 15.6632 8.93451 16.5049 9.02952C17.3467 9.12453 18.1445 9.4552 18.8067 9.9835C19.4688 10.5118 19.9684 11.2163 20.248 12.0159C20.5276 12.8155 20.5758 13.6778 20.3871 14.5036C20.1984 15.3294 19.7804 16.0852 19.1813 16.684C18.5821 17.2828 17.8261 17.7004 17.0002 17.8886Z" fill="white"/>
</svg>
