<svg width="25" height="21" viewBox="0 0 25 21" fill="#ffffff" xmlns="http://www.w3.org/2000/svg">
<path fill-rule="evenodd" clip-rule="evenodd" d="M20.5637 19.0884L20.5645 19.0864L20.5848 19.0356L24.0833 1.39673V1.33944C24.0833 0.899954 23.921 0.516284 23.5676 0.286148C23.2583 0.0847095 22.9027 0.0703636 22.6534 0.0892876C22.3897 0.109302 22.1411 0.17512 21.969 0.229907C21.8804 0.258093 21.8063 0.285251 21.7533 0.305792C21.7267 0.316101 21.7051 0.32485 21.6895 0.331367L21.6741 0.337851L2.1676 7.98994L2.16223 7.99187C2.1517 7.9957 2.13777 8.0009 2.12094 8.00745C2.08739 8.02051 2.04173 8.03919 1.98809 8.06351C1.88276 8.11124 1.73723 8.18491 1.58965 8.28597C1.33898 8.45763 0.861685 8.864 0.942281 9.50827C1.00904 10.0419 1.37689 10.3808 1.62489 10.5563C1.75783 10.6504 1.88501 10.7182 1.97814 10.7625C2.02533 10.785 2.06542 10.8022 2.09527 10.8144C2.11024 10.8205 2.12275 10.8253 2.13243 10.829L2.14483 10.8336L2.15275 10.8366L5.56553 11.9855C5.55401 12.1996 5.57525 12.418 5.63204 12.6334L7.34153 19.1182C7.54423 19.8871 8.23982 20.4227 9.03499 20.4221C9.74774 20.4216 10.3799 19.9904 10.6484 19.3471L13.3174 16.4933L17.9012 20.0076L17.9664 20.036C18.3828 20.2177 18.7719 20.2753 19.1277 20.2267C19.4829 20.1782 19.7652 20.0292 19.9773 19.8596C20.1859 19.6926 20.329 19.5042 20.4189 19.3624C20.4646 19.2903 20.4986 19.2269 20.5223 19.1793C20.5341 19.1553 20.5435 19.1351 20.5505 19.1193L20.5593 19.099L20.5624 19.0915L20.5637 19.0884ZM7.32417 12.1873C7.28532 12.0399 7.34631 11.8843 7.47498 11.8026L19.0507 4.45152C19.0507 4.45152 19.7315 4.03818 19.7072 4.45152C19.7072 4.45152 19.8287 4.52452 19.4639 4.86487C19.1178 5.18812 11.2136 12.8194 10.4138 13.5916C10.3676 13.6361 10.34 13.6873 10.3238 13.7493L9.03367 18.6721L7.32417 12.1873Z" />
</svg>
