<svg width="60" height="60" viewBox="0 0 60 60" fill="none" xmlns="http://www.w3.org/2000/svg">
<path fill-rule="evenodd" clip-rule="evenodd" d="M12.7334 31.8808C12.7334 22.3598 20.4791 14.614 30.0001 14.614C39.5212 14.614 47.2669 22.3598 47.2669 31.8808C47.2669 41.4018 39.5212 49.1475 30.0001 49.1475C20.4791 49.1475 12.7334 41.4018 12.7334 31.8808ZM21.179 27.6816C21.0298 27.3635 20.6797 27.1916 20.3368 27.2681C19.9939 27.3445 19.75 27.6488 19.75 28.0001V36.0001C19.75 36.4143 20.0858 36.7501 20.5 36.7501C20.9142 36.7501 21.25 36.4143 21.25 36.0001V31.3646L23.5741 36.3186C23.7233 36.6367 24.0733 36.8086 24.4163 36.7321C24.7592 36.6557 25.0031 36.3514 25.0031 36.0001V28.0001C25.0031 27.5859 24.6673 27.2501 24.2531 27.2501C23.8389 27.2501 23.5031 27.5859 23.5031 28.0001V32.6355L21.179 27.6816ZM28.0062 27.2501C27.592 27.2501 27.2562 27.5859 27.2562 28.0001V32.0001V36.0001C27.2562 36.4143 27.592 36.7501 28.0062 36.7501C28.4204 36.7501 28.7562 36.4143 28.7562 36.0001V32.7645L31.0413 32.8079C31.4554 32.8158 31.7975 32.4865 31.8054 32.0723C31.8133 31.6582 31.4839 31.3161 31.0698 31.3082L28.7562 31.2642V28.7501H31.9938C32.408 28.7501 32.7438 28.4143 32.7438 28.0001C32.7438 27.5859 32.408 27.2501 31.9938 27.2501H28.0062ZM35.0432 27.482C34.629 27.482 34.2932 27.8178 34.2932 28.232C34.2932 28.6462 34.629 28.982 35.0432 28.982H36.5216V36.0001C36.5216 36.4143 36.8574 36.7501 37.2716 36.7501C37.6858 36.7501 38.0216 36.4143 38.0216 36.0001V28.982H39.5C39.9142 28.982 40.25 28.6462 40.25 28.232C40.25 27.8178 39.9142 27.482 39.5 27.482H37.2716H35.0432Z" fill="white"/>
<path d="M59.7303 53.075C59.3789 52.734 58.8167 52.742 58.4745 53.094L55.2912 56.3768V27.4526C55.2912 26.9619 54.894 26.5647 54.4033 26.5647C53.9126 26.5647 53.5153 26.9619 53.5153 27.4526V56.4196L50.2569 53.0591C49.9147 52.7071 49.3531 52.6992 49.0011 53.0402C48.6491 53.3818 48.6406 53.944 48.9822 54.296L53.7451 59.2074C53.912 59.3798 54.1417 59.4769 54.3825 59.4769C54.6233 59.4769 54.8531 59.3798 55.0199 59.2074L59.7492 54.3308C60.0908 53.9782 60.0823 53.416 59.7303 53.075Z" fill="white"/>
<path d="M6.27887 1.25031C6.25137 1.22281 6.21592 1.21181 6.18659 1.18858C6.17253 1.17881 6.15848 1.16903 6.14381 1.15986C5.79793 0.924587 5.33043 0.944142 5.02366 1.25092L0.260101 6.01264C-0.0863948 6.35914 -0.0870059 6.92196 0.260101 7.26846C0.433655 7.44201 0.660375 7.52879 0.887705 7.52879C1.11504 7.52879 1.34237 7.44201 1.51531 7.26846L4.78349 4.0015V32.0726C4.78349 32.5633 5.18071 32.9605 5.67143 32.9605C6.16215 32.9605 6.55936 32.5633 6.55936 32.0726V4.04183L9.75483 7.23485C10.1019 7.58196 10.6642 7.58073 11.0106 7.23485C11.3571 6.88774 11.3571 6.32553 11.0106 5.97903L6.27887 1.25031Z" fill="white"/>
</svg>
