<svg width="90" height="83" viewBox="0 0 90 83" fill="none" xmlns="http://www.w3.org/2000/svg">
<path d="M25.1 41.3998C24.9 44.5998 27.4 47.3998 30.6 47.5998C30.7 47.5998 30.8 47.5998 30.9 47.5998C34.2 47.5998 36.8 44.9998 36.8 41.6998C36.8 38.3998 34.2 35.7998 30.9 35.7998C27.8 35.8998 25.2 38.2998 25.1 41.3998Z" stroke="white" stroke-width="1.6735" stroke-miterlimit="10"/>
<path d="M3.20001 39.9C2.20001 39.8 1.20001 40.6001 1.20001 41.7001C1.20001 42.8001 1.9 43.7001 3 43.7001C4 43.8001 4.9 43 5 41.9C5 40.9 4.20001 40 3.20001 39.9Z" stroke="white" stroke-width="1.6735" stroke-miterlimit="10"/>
<path d="M24.7 7.29993C25.6 6.79993 26 5.69996 25.5 4.69996C25 3.79996 23.9 3.39994 22.9 3.89994C22 4.39994 21.6 5.49994 22.1 6.39994C22.6 7.39994 23.8 7.79993 24.7 7.29993Z" stroke="white" stroke-width="1.6735" stroke-miterlimit="10"/>
<path d="M30.7 17.6999C32.1 16.9999 32.7 15.1998 32 13.7998C31.3 12.3998 29.5 11.7998 28.1 12.4998C26.7 13.1998 26.1 14.9998 26.8 16.3998C27.5 17.7998 29.2 18.3999 30.7 17.6999Z" stroke="white" stroke-width="1.6735" stroke-miterlimit="10"/>
<path d="M10.6 24.7998C11.7 25.4998 13.2 25.1998 14 24.0998C14.7 22.9998 14.4 21.4998 13.3 20.6998C12.2 19.9998 10.7 20.2998 9.89999 21.3998C9.19999 22.5998 9.50001 24.0998 10.6 24.7998Z" stroke="white" stroke-width="1.6735" stroke-miterlimit="10"/>
<path d="M14.2 38.8999C12.6 38.7999 11.2 39.9999 11.1 41.6999C11 43.2999 12.2 44.6999 13.9 44.7999C15.5 44.8999 16.9 43.6999 17 41.9999C17 40.2999 15.8 38.8999 14.2 38.8999Z" stroke="white" stroke-width="1.6735" stroke-miterlimit="10"/>
<path d="M10.9 58.5999C9.69999 59.1999 9.19998 60.5999 9.79998 61.8999C10.4 63.0999 11.8 63.5999 13.1 62.9999C14.3 62.3999 14.8 60.9999 14.2 59.6999C13.6 58.4999 12.1 57.9999 10.9 58.5999Z" stroke="white" stroke-width="1.6735" stroke-miterlimit="10"/>
<path d="M22.3 32.7998C23.9 33.7998 26 33.3998 27.1 31.7998C28.1 30.1998 27.7 28.0998 26.1 26.9998C24.5 25.9998 22.4 26.3998 21.3 27.9998C20.3 29.5998 20.7 31.6998 22.3 32.7998Z" stroke="white" stroke-width="1.6735" stroke-miterlimit="10"/>
<path d="M58.5 17.4996C59.9 18.3996 61.7 17.9997 62.6 16.6997C63.5 15.2997 63.1 13.4996 61.8 12.5996C60.4 11.6996 58.6 12.0996 57.7 13.3996C56.8 14.7996 57.2 16.5996 58.5 17.4996Z" stroke="white" stroke-width="1.6735" stroke-miterlimit="10"/>
<path d="M64.6 7.09978C65.5 7.69978 66.6 7.39977 67.2 6.49977C67.8 5.59977 67.5 4.49976 66.6 3.89976C65.7 3.29976 64.6 3.59976 64 4.39976C63.4 5.29976 63.7 6.49978 64.6 7.09978Z" stroke="white" stroke-width="1.6735" stroke-miterlimit="10"/>
<path d="M59 35.7998C55.8 35.5998 53 38.0998 52.8 41.2998C52.6 44.4998 55.1 47.2998 58.3 47.4998C58.4 47.4998 58.5 47.4998 58.6 47.4998C61.8 47.4998 64.5 44.8998 64.5 41.5998C64.6 38.5998 62.1 35.9998 59 35.7998Z" stroke="white" stroke-width="1.6735" stroke-miterlimit="10"/>
<path d="M32.6 32.3997C33.6 34.3997 35.6 35.5998 37.9 35.5998C41.1 35.5998 43.8 32.9998 43.8 29.6998C43.8 28.7998 43.6 27.8998 43.2 26.9998C41.7 24.0998 38.2 22.8997 35.3 24.3997C32.3 25.8997 31.1 29.4997 32.6 32.3997Z" stroke="white" stroke-width="1.6735" stroke-miterlimit="10"/>
<path d="M78.7 24.7996C79.9 24.1996 80.4 22.6996 79.7 21.4996C79.1 20.2996 77.6 19.7996 76.4 20.4996C75.2 21.0996 74.7 22.4996 75.3 23.6996C76 24.9996 77.5 25.3996 78.7 24.7996Z" stroke="white" stroke-width="1.6735" stroke-miterlimit="10"/>
<path d="M63.8 26.6998C62.1 27.5998 61.4 29.5998 62.3 31.2998C63.2 32.9998 65.2 33.6998 66.9 32.7998C68.6 31.8998 69.3 29.8998 68.4 28.1998C67.6 26.4998 65.5 25.8998 63.8 26.6998Z" stroke="white" stroke-width="1.6735" stroke-miterlimit="10"/>
<path d="M44.6 6.19988C45.9 6.29988 47.1 5.19986 47.2 3.89986C47.3 2.59986 46.2 1.39985 44.9 1.29985C43.6 1.19985 42.4 2.19987 42.3 3.59987C42.2 4.99987 43.2 6.09988 44.6 6.19988Z" stroke="white" stroke-width="1.6735" stroke-miterlimit="10"/>
<path d="M44.6 21.3998C46.5 21.4998 48.1 19.9998 48.2 18.0998C48.3 16.1998 46.8 14.5998 44.9 14.4998C43 14.3998 41.4 15.8998 41.3 17.7998C41.2 19.6998 42.6 21.2998 44.6 21.3998Z" stroke="white" stroke-width="1.6735" stroke-miterlimit="10"/>
<path d="M25.8 56.6998C27.5 55.7998 28.2 53.7998 27.3 52.0998C26.4 50.3998 24.4 49.6998 22.7 50.5998C21 51.4998 20.3 53.4998 21.2 55.1998C22.1 56.8998 24.1 57.5998 25.8 56.6998Z" stroke="white" stroke-width="1.6735" stroke-miterlimit="10"/>
<path d="M46.8 26.4998C45 29.1998 45.8 32.8998 48.5 34.5998C51.2 36.3998 54.9 35.5998 56.6 32.8998C58.4 30.1998 57.6 26.4998 54.9 24.7998C53.9 24.1998 52.8 23.7998 51.7 23.7998C49.7 23.7998 47.9 24.7998 46.8 26.4998Z" stroke="white" stroke-width="1.6735" stroke-miterlimit="10"/>
<path d="M57 51.0998C55.5 48.1998 52 46.9998 49.1 48.4998C46.2 49.9998 45 53.4998 46.5 56.3998C48 59.2998 51.5 60.4998 54.4 58.9998C57.3 57.4998 58.5 53.9998 57 51.0998Z" stroke="white" stroke-width="1.6735" stroke-miterlimit="10"/>
<path d="M67.3 50.5999C65.7 49.5999 63.6 49.9999 62.5 51.5999C61.5 53.1999 61.9 55.2999 63.5 56.3999C65.1 57.3999 67.2 56.9999 68.3 55.3999C69.3 53.7999 68.9 51.6999 67.3 50.5999Z" stroke="white" stroke-width="1.6735" stroke-miterlimit="10"/>
<path d="M78.5 41.7996C78.6 40.1996 77.4 38.7997 75.7 38.6997C74.1 38.5997 72.7 39.7997 72.6 41.4997C72.5 43.0997 73.7 44.4997 75.4 44.5997C77.1 44.6997 78.5 43.3996 78.5 41.7996Z" stroke="white" stroke-width="1.6735" stroke-miterlimit="10"/>
<path d="M86.7 39.6998C85.7 39.5998 84.7 40.3998 84.7 41.4998C84.7 42.5998 85.4 43.4998 86.5 43.4998C87.5 43.5998 88.4 42.7998 88.5 41.6998C88.5 40.6998 87.7 39.7998 86.7 39.6998Z" stroke="white" stroke-width="1.6735" stroke-miterlimit="10"/>
<path d="M79 58.5997C77.9 57.8997 76.4 58.1997 75.6 59.2997C74.9 60.3997 75.2 61.8997 76.3 62.6997C77.4 63.3997 78.9 63.0997 79.7 61.9997C80.5 60.7997 80.1 59.2997 79 58.5997Z" stroke="white" stroke-width="1.6735" stroke-miterlimit="10"/>
<path d="M25 76.2997C24.1 75.6997 23 75.9997 22.4 76.7997C21.8 77.6997 22.1 78.7997 22.9 79.3997C23.8 79.9997 24.9 79.6997 25.5 78.8997C26.2 78.0997 25.9 76.8997 25 76.2997Z" stroke="white" stroke-width="1.6735" stroke-miterlimit="10"/>
<path d="M64.9 76.1C64 76.6 63.6 77.7 64.1 78.7C64.6 79.6 65.7 80 66.7 79.5C67.6 79 68 77.9 67.5 77C67 76 65.9 75.6 64.9 76.1Z" stroke="white" stroke-width="1.6735" stroke-miterlimit="10"/>
<path d="M42.8 56.8999C44.6 54.1999 43.8 50.4999 41.1 48.7999C38.4 46.9999 34.7 47.7999 33 50.4999C31.2 53.1999 32 56.8999 34.7 58.5999C35.7 59.1999 36.8 59.5999 37.9 59.5999C39.9 59.5999 41.7 58.5999 42.8 56.8999Z" stroke="white" stroke-width="1.6735" stroke-miterlimit="10"/>
<path d="M31.1 66C29.7 65.1 27.9 65.5 27 66.8C26.1 68.2 26.5 70 27.8 70.9C29.2 71.8 31 71.4 31.9 70.1C32.8 68.7 32.4 66.8 31.1 66Z" stroke="white" stroke-width="1.6735" stroke-miterlimit="10"/>
<path d="M44.8 77.1997C43.5 77.0997 42.3 78.1997 42.2 79.4997C42.1 80.7997 43.2 81.9997 44.5 82.0997C45.8 82.1997 47 81.1997 47.1 79.7997C47.1 78.3997 46.1 77.2997 44.8 77.1997Z" stroke="white" stroke-width="1.6735" stroke-miterlimit="10"/>
<path d="M44.8 61.9998C42.9 61.8998 41.3 63.3998 41.2 65.2998C41.1 67.1998 42.6 68.7998 44.5 68.8998C46.4 68.9998 48 67.4998 48.1 65.5998C48.2 63.6998 46.7 62.0998 44.8 61.9998Z" stroke="white" stroke-width="1.6735" stroke-miterlimit="10"/>
<path d="M58.9 65.6997C57.5 66.3997 56.9 68.1997 57.6 69.6997C58.3 71.0997 60.1 71.6997 61.6 70.9997C63 70.2997 63.6 68.4997 62.9 67.0997C62.2 65.5997 60.4 64.9997 58.9 65.6997Z" stroke="white" stroke-width="1.6735" stroke-miterlimit="10"/>
</svg>
