<svg width="60" height="60" viewBox="0 0 60 60" fill="none" xmlns="http://www.w3.org/2000/svg">
<path d="M41.2493 27.1875C41.2493 29.9688 40.4245 32.6876 38.8793 35.0002C37.3341 37.3127 35.1378 39.1152 32.5683 40.1795C29.9987 41.2439 27.1712 41.5224 24.4433 40.9798C21.7155 40.4372 19.2098 39.0978 17.2431 37.1312C15.2764 35.1645 13.9371 32.6588 13.3945 29.9309C12.8519 27.2031 13.1304 24.3756 14.1947 21.806C15.2591 19.2364 17.0615 17.0401 19.3741 15.4949C21.6866 13.9497 24.4055 13.125 27.1868 13.125C30.9151 13.1292 34.4895 14.6121 37.1258 17.2484C39.7621 19.8848 41.245 23.4592 41.2493 27.1875ZM53.8238 53.826C53.4722 54.1776 52.9952 54.3752 52.4979 54.3752C52.0006 54.3752 51.5236 54.1776 51.172 53.826L41.0416 43.6956C36.7807 47.2728 31.3034 49.0671 25.7518 48.7043C20.2002 48.3415 15.003 45.8495 11.244 41.7482C7.48493 37.6468 5.45426 32.2526 5.57544 26.6905C5.69662 21.1284 7.96029 15.8278 11.8944 11.894C15.8285 7.96029 21.1293 5.69707 26.6914 5.57638C32.2535 5.45568 37.6475 7.48681 41.7486 11.2462C45.8496 15.0056 48.3411 20.203 48.7034 25.7547C49.0658 31.3063 47.271 36.7835 43.6934 41.044L53.8238 51.1744C54.1754 51.526 54.373 52.0029 54.373 52.5002C54.373 52.9975 54.1754 53.4744 53.8238 53.826ZM27.1868 45C30.7097 45 34.1536 43.9553 37.0829 41.998C40.0121 40.0408 42.2952 37.2588 43.6434 34.004C44.9916 30.7492 45.3443 27.1677 44.657 23.7124C43.9697 20.2571 42.2732 17.0832 39.7821 14.5921C37.291 12.101 34.1171 10.4045 30.6618 9.71722C27.2065 9.02993 23.625 9.38267 20.3702 10.7309C17.1154 12.079 14.3335 14.3621 12.3762 17.2914C10.419 20.2206 9.37427 23.6645 9.37427 27.1875C9.37961 31.91 11.258 36.4376 14.5973 39.7769C17.9367 43.1162 22.4642 44.9946 27.1868 45Z" fill="white"/>
</svg>
