<svg width="60" height="60" viewBox="0 0 60 60" fill="none" xmlns="http://www.w3.org/2000/svg">
<path d="M57.9986 42.5961C57.9967 42.5858 57.9948 42.5755 57.9928 42.5652L54.1607 22.7786C54.1578 22.7638 54.1531 22.7498 54.1499 22.735C53.557 19.4974 51.8487 16.5697 49.3218 14.4605C46.7948 12.3513 43.6089 11.1939 40.3174 11.1892H40.3119L19.6892 11.2501C16.3808 11.2435 13.1765 12.4062 10.642 14.5328C8.10763 16.6594 6.40616 19.6132 5.83811 22.8725C5.83513 22.8894 5.83239 22.9066 5.82987 22.9235L2.01097 42.5639C2.00891 42.5746 2.00697 42.5854 2.00502 42.5961C1.69362 44.3631 1.95356 46.1834 2.74712 47.7926C3.54068 49.4018 4.82653 50.7162 6.41795 51.5449C8.00938 52.3735 9.82351 52.6733 11.5969 52.4008C13.3703 52.1282 15.0107 51.2974 16.2798 50.0291C16.3138 49.9952 16.3463 49.9603 16.3773 49.9242L25.9232 39.3716L34.091 39.339L43.6234 49.9208C43.6552 49.9579 43.6887 49.994 43.7238 50.0291C44.9928 51.2976 46.6332 52.1285 48.4067 52.4012C50.1802 52.6739 51.9944 52.3741 53.5859 51.5454C55.1774 50.7167 56.4633 49.4023 57.2568 47.7929C58.0503 46.1836 58.3102 44.3632 57.9986 42.5961L57.9986 42.5961ZM24.3757 27.1876H22.5007V29.0626C22.5007 29.5599 22.3032 30.0368 21.9515 30.3884C21.5999 30.74 21.123 30.9376 20.6257 30.9376C20.1284 30.9376 19.6515 30.74 19.2999 30.3884C18.9482 30.0368 18.7507 29.5599 18.7507 29.0626V27.1876H16.8757C16.3784 27.1876 15.9015 26.99 15.5499 26.6384C15.1982 26.2868 15.0007 25.8099 15.0007 25.3126C15.0007 24.8153 15.1982 24.3384 15.5499 23.9868C15.9015 23.6351 16.3784 23.4376 16.8757 23.4376H18.7507V21.5626C18.7507 21.0653 18.9482 20.5884 19.2999 20.2368C19.6515 19.8851 20.1284 19.6876 20.6257 19.6876C21.123 19.6876 21.5999 19.8851 21.9515 20.2368C22.3032 20.5884 22.5007 21.0653 22.5007 21.5626V23.4376H24.3757C24.873 23.4376 25.3499 23.6351 25.7015 23.9868C26.0532 24.3384 26.2507 24.8153 26.2507 25.3126C26.2507 25.8099 26.0532 26.2868 25.7015 26.6384C25.3499 26.99 24.873 27.1876 24.3757 27.1876ZM33.7507 25.3126C33.7507 24.8153 33.9483 24.3384 34.2999 23.9868C34.6515 23.6351 35.1284 23.4376 35.6257 23.4376H43.1257C43.623 23.4376 44.0999 23.6351 44.4515 23.9868C44.8032 24.3384 45.0007 24.8153 45.0007 25.3126C45.0007 25.8099 44.8032 26.2868 44.4515 26.6384C44.0999 26.99 43.623 27.1876 43.1257 27.1876H35.6257C35.1284 27.1876 34.6515 26.99 34.2999 26.6384C33.9483 26.2868 33.7507 25.8099 33.7507 25.3126ZM50.5033 48.6778C49.7699 48.8065 49.0165 48.759 48.3051 48.5391C47.5937 48.3193 46.9448 47.9334 46.412 47.4134L39.1202 39.319L40.3174 39.3142C42.7082 39.3128 45.0591 38.7019 47.1482 37.5393C49.2372 36.3767 50.9954 34.7008 52.2567 32.6698L54.3081 43.2617C54.5184 44.4841 54.2362 45.7399 53.5232 46.7548C52.8102 47.7697 51.7245 48.4611 50.5033 48.6778Z" fill="white"/>
</svg>
