<svg width="56" height="93" viewBox="0 0 56 93" fill="none" xmlns="http://www.w3.org/2000/svg">
<path d="M42.1 52.3001C44.6 11.5001 27.7 1.1001 27.7 1.1001C27.7 1.1001 10.7 11.5001 13.3 52.3001C7.4 59.5001 4.8 60.2001 1.5 81.2001C1.5 81.2001 17.9 64.1001 17.9 64.8001C17.9 65.5001 22.5 74.6001 22.5 74.6001H27.7H32.9C32.9 74.6001 37.5 65.4001 37.5 64.8001C37.5 64.1001 53.9 81.2001 53.9 81.2001C50.6 60.1001 48 59.5001 42.1 52.3001Z" stroke="white" stroke-width="1.6735" stroke-miterlimit="10"/>
<path d="M32.2 80.6998C29.7 80.0998 27.8 83.7998 27.7 83.9998C27.5 83.5998 25.5 80.0998 23.1 80.6998C23.1 80.6998 22.9 87.6999 27.6 91.0999C32.4 87.5999 32.2 80.6998 32.2 80.6998Z" stroke="white" stroke-width="1.6735" stroke-miterlimit="10"/>
<path d="M27.7 28.1999C30.9585 28.1999 33.6 25.5584 33.6 22.2999C33.6 19.0414 30.9585 16.3999 27.7 16.3999C24.4415 16.3999 21.8 19.0414 21.8 22.2999C21.8 25.5584 24.4415 28.1999 27.7 28.1999Z" stroke="white" stroke-width="1.6735" stroke-miterlimit="10"/>
</svg>
