<svg width="24" height="24" viewBox="0 0 24 24" fill="none" xmlns="http://www.w3.org/2000/svg">
<path d="M20.2498 11.25H3.74976C3.55084 11.25 3.36008 11.329 3.21943 11.4697C3.07877 11.6104 2.99976 11.8011 2.99976 12C2.99976 12.1989 3.07877 12.3897 3.21943 12.5304C3.36008 12.671 3.55084 12.75 3.74976 12.75H20.2498C20.4487 12.75 20.6394 12.671 20.7801 12.5304C20.9207 12.3897 20.9998 12.1989 20.9998 12C20.9998 11.8011 20.9207 11.6104 20.7801 11.4697C20.6394 11.329 20.4487 11.25 20.2498 11.25Z" fill="white"/>
<path d="M3.74976 6.75003H20.2498C20.4487 6.75003 20.6394 6.67101 20.7801 6.53036C20.9207 6.38971 20.9998 6.19894 20.9998 6.00003C20.9998 5.80112 20.9207 5.61035 20.7801 5.4697C20.6394 5.32905 20.4487 5.25003 20.2498 5.25003H3.74976C3.55084 5.25003 3.36008 5.32905 3.21943 5.4697C3.07877 5.61035 2.99976 5.80112 2.99976 6.00003C2.99976 6.19894 3.07877 6.38971 3.21943 6.53036C3.36008 6.67101 3.55084 6.75003 3.74976 6.75003Z" fill="white"/>
<path d="M20.2498 17.25H3.74976C3.55084 17.25 3.36008 17.329 3.21943 17.4697C3.07877 17.6104 2.99976 17.8011 2.99976 18C2.99976 18.1989 3.07877 18.3897 3.21943 18.5304C3.36008 18.671 3.55084 18.75 3.74976 18.75H20.2498C20.4487 18.75 20.6394 18.671 20.7801 18.5304C20.9207 18.3897 20.9998 18.1989 20.9998 18C20.9998 17.8011 20.9207 17.6104 20.7801 17.4697C20.6394 17.329 20.4487 17.25 20.2498 17.25Z" fill="white"/>
</svg>
