<svg width="22" height="22" viewBox="0 0 22 22" fill="#ffffff" xmlns="http://www.w3.org/2000/svg">
<path fill-rule="evenodd" clip-rule="evenodd" d="M4.89776 0.595064C8.92057 0.145456 13.0794 0.145456 17.1022 0.595064C19.317 0.8426 21.1034 2.58768 21.3633 4.81024C21.8443 8.92274 21.8443 13.0773 21.3633 17.1898C21.1034 19.4124 19.317 21.1574 17.1022 21.405C13.0794 21.8546 8.92057 21.8546 4.89776 21.405C2.68297 21.1574 0.896574 19.4124 0.636625 17.1898C0.15563 13.0773 0.15563 8.92274 0.636625 4.81024C0.896574 2.58767 2.68297 0.8426 4.89776 0.595064ZM16.1457 7.47674L17.125 6.53998L17.1242 6.33333H13.7388L11.3259 12.3535L8.58097 6.33409H5.02996V6.53998L6.17412 7.91739C6.22944 7.96718 6.27223 8.02932 6.29903 8.09875C6.32582 8.16819 6.33587 8.24296 6.32835 8.31701V13.7317C6.34476 13.8279 6.33833 13.9267 6.30956 14.02C6.28079 14.1133 6.23049 14.1985 6.16272 14.2688L4.87497 15.83V16.0352H8.52323V15.83L7.23623 14.2688C7.16791 14.1986 7.11647 14.1137 7.0858 14.0206C7.05513 13.9276 7.04604 13.8287 7.05921 13.7317V9.04939L10.2615 16.0359H10.6338L13.384 9.04939V14.6183C13.384 14.7657 13.384 14.7945 13.2868 14.8918L12.2968 15.8521V16.0572H17.1007V15.8521L16.1457 14.9146C16.1044 14.883 16.0725 14.8408 16.0533 14.7925C16.0342 14.7442 16.0286 14.6916 16.037 14.6403V7.751C16.0286 7.69973 16.0342 7.64712 16.0533 7.59881C16.0725 7.5505 16.1044 7.5083 16.1457 7.47674Z" />
</svg>
