<svg width="84" height="96" viewBox="0 0 84 96" fill="none" xmlns="http://www.w3.org/2000/svg">
<path d="M42.2 1.6001L1.59998 25.0001C1.59998 25.0001 1.70001 72.2001 1.70001 71.6001C1.70001 71.0001 42.2 94.8001 42.2 94.8001L82.8 71.5001L82.6 25.0001L42.2 1.6001Z" stroke="white" stroke-width="1.6735" stroke-miterlimit="10"/>
<path d="M42.4 6.6001L6.5 27.4001C6.5 27.4001 6.59998 69.2001 6.59998 68.7001C6.59998 68.2001 42.5 89.3001 42.5 89.3001L78.5 68.6001L78.3 27.4001L42.4 6.6001Z" stroke="white" stroke-width="1.6735" stroke-miterlimit="10"/>
<path d="M13.7 33.1997V64.1997C13.7 64.1997 17.7 66.5997 17.7 66.4997C17.7 66.3997 17.7 45.1997 17.7 45.1997L24.7 70.5997L27.8 72.2997L27.5 24.1997L23.3 26.7997C23.3 26.7997 23.1 48.6997 23.1 48.4997C23.1 48.2997 17.5 30.9997 17.5 30.9997L13.7 33.1997Z" stroke="white" stroke-width="1.6735" stroke-miterlimit="10"/>
<path d="M32 21.5999C32 21.5999 31.7 74.0999 32 74.0999C32.3 74.0999 36.2 77.1999 36.2 77.0999C36.2 76.8999 36.2 50.4999 36.2 50.4999C36.2 50.4999 52.6 50.6999 52.5 50.4999C52.3 50.2999 52.5 45.0999 52.5 45.0999H36.2V23.7999L42.3 20.2999L53.5 26.3999C53.5 26.3999 55.9 22.3999 55.9 22.5999C55.9 22.7999 42.4 14.8999 42.4 14.8999L32 21.5999Z" stroke="white" stroke-width="1.6735" stroke-miterlimit="10"/>
<path d="M56 27.9999C56 27.9999 61.4 31.6999 61.6 31.6999C61.8 31.6999 61.6 70.3999 61.6 70.3999L66.3 67.7999V34.3999L72.2 38.3999C72.2 38.3999 72.2 32.5999 72.2 32.7999C72.2 32.9999 58.4 24.3999 58.4 24.3999L56 27.9999Z" stroke="white" stroke-width="1.6735" stroke-miterlimit="10"/>
</svg>
