<svg width="92" height="86" viewBox="0 0 92 86" fill="none" xmlns="http://www.w3.org/2000/svg">
<path d="M62.7 80.7999L53.8 71.8999" stroke="white" stroke-width="1.6735" stroke-miterlimit="10" stroke-linecap="round" stroke-linejoin="round"/>
<path d="M45.8 84.6997V72.1997" stroke="white" stroke-width="1.6735" stroke-miterlimit="10" stroke-linecap="round" stroke-linejoin="round"/>
<path d="M36.8 72.6001L28.2 81.2001" stroke="white" stroke-width="1.6735" stroke-miterlimit="10" stroke-linecap="round" stroke-linejoin="round"/>
<path d="M28.2 5L37 13.8" stroke="white" stroke-width="1.6735" stroke-miterlimit="10" stroke-linecap="round" stroke-linejoin="round"/>
<path d="M45 1.1001V13.6001" stroke="white" stroke-width="1.6735" stroke-miterlimit="10" stroke-linecap="round" stroke-linejoin="round"/>
<path d="M54 13.2L62.7 4.5" stroke="white" stroke-width="1.6735" stroke-miterlimit="10" stroke-linecap="round" stroke-linejoin="round"/>
<path d="M40.1 33.1C37.7 27.4 37.8 26.5 29.1 26.5C24.2 26.5 20.4 31.5 20.4 31.5C18.4 33.7 16.5 35.6 15.4 35.9C13.7 36.5 0.499992 36.1 1.79999 36.1" stroke="white" stroke-width="1.6735" stroke-miterlimit="10"/>
<path d="M22.4 48.7C22.4 48.7 27.5 48.5 29.8 46.7C30.3 46.3 30.7 45.7 31 45" stroke="white" stroke-width="1.6735" stroke-miterlimit="10" stroke-linecap="round" stroke-linejoin="round"/>
<path d="M35 39.2002H34.2C32.2 39.2002 30.6 37.6002 30.6 35.6002V35.4002C30.6 34.3002 31.1 33.4002 31.8 32.7002" stroke="white" stroke-width="1.6735" stroke-miterlimit="10"/>
<path d="M39.5 31.8999H41.9C43.9 31.8999 45.5 33.4999 45.5 35.4999V35.6999C45.5 37.2999 44.4 38.6999 42.9 39.0999" stroke="white" stroke-width="1.6735" stroke-miterlimit="10"/>
<path d="M42.6 39.7001C44.3 40.0001 45.6 41.5001 45.6 43.2001V43.4001C45.6 45.4001 44 47.0001 42 47.0001H34.3C32.9 47.0001 31.8 46.2001 31.2 45.1001C30.9 44.6001 30.8 44.0001 30.8 43.4001V43.2001C30.8 41.2001 32.4 39.6001 34.4 39.6001H35.2" stroke="white" stroke-width="1.6735" stroke-miterlimit="10"/>
<path d="M42 54.2999H34.3C32.3 54.2999 30.7 52.6999 30.7 50.6999V50.4999C30.7 48.4999 32.3 46.8999 34.3 46.8999H42C44 46.8999 45.6 48.4999 45.6 50.4999V50.6999C45.6 52.6999 43.9 54.2999 42 54.2999Z" stroke="white" stroke-width="1.6735" stroke-miterlimit="10"/>
<path d="M42 61.9H34.3C32.3 61.9 30.7 60.3 30.7 58.3V58.1C30.7 56.1 32.3 54.5 34.3 54.5H42C44 54.5 45.6 56.1 45.6 58.1V58.3C45.6 60.3 43.9 61.9 42 61.9Z" stroke="white" stroke-width="1.6735" stroke-miterlimit="10"/>
<path d="M35.5 27.1001C37 27.3001 38.5 30.2001 38.8 30.7001L39.2 31.5001L42.2 37.3001C43.2 39.2001 42.5 41.4001 40.8 42.3001L40.6 42.4001C38.9 43.3001 36.7 42.6001 35.8 40.9001L31.7 32.9001" stroke="white" stroke-width="1.6735" stroke-miterlimit="10" stroke-linecap="round" stroke-linejoin="round"/>
<path d="M1.70001 36.2002V54.9002C1.70001 54.9002 16.3 55.1002 16.6 55.3002C16.8 55.4002 19 60.9002 20.9 62.4002C21 62.5002 21.1 62.5002 21.2 62.5002L42 61.9002" stroke="white" stroke-width="1.6735" stroke-miterlimit="10" stroke-linecap="round" stroke-linejoin="round"/>
<path d="M52.6 33.2997C55 27.5997 54.9 26.6997 63.6 26.6997C68.5 26.6997 72.3 31.6997 72.3 31.6997C74.3 33.8997 76.2 35.7997 77.3 36.0997C79 36.6997 92.2 36.2997 90.9 36.2997" stroke="white" stroke-width="1.6735" stroke-miterlimit="10"/>
<path d="M70.3 48.7996C70.3 48.7996 65.2 48.5996 62.9 46.7996C62.4 46.3996 62 45.7996 61.7 45.0996" stroke="white" stroke-width="1.6735" stroke-miterlimit="10" stroke-linecap="round" stroke-linejoin="round"/>
<path d="M57.6 39.3999H58.4C60.4 39.3999 62 37.7999 62 35.7999V35.5999C62 34.4999 61.5 33.5999 60.8 32.8999" stroke="white" stroke-width="1.6735" stroke-miterlimit="10"/>
<path d="M53.1 31.9995H50.7C48.7 31.9995 47.1 33.5995 47.1 35.5995V35.7995C47.1 37.3995 48.2 38.7995 49.7 39.1995" stroke="white" stroke-width="1.6735" stroke-miterlimit="10"/>
<path d="M50.1 39.7997C48.4 40.0997 47.1 41.5997 47.1 43.2997V43.4997C47.1 45.4997 48.7 47.0997 50.7 47.0997H58.4C59.8 47.0997 60.9 46.2997 61.5 45.1997C61.8 44.6997 61.9 44.0997 61.9 43.4997V43.2997C61.9 41.2997 60.3 39.6997 58.3 39.6997H57.5" stroke="white" stroke-width="1.6735" stroke-miterlimit="10"/>
<path d="M50.7 54.4996H58.4C60.4 54.4996 62 52.8996 62 50.8996V50.6996C62 48.6996 60.4 47.0996 58.4 47.0996H50.7C48.7 47.0996 47.1 48.6996 47.1 50.6996V50.8996C47.1 52.7996 48.7 54.4996 50.7 54.4996Z" stroke="white" stroke-width="1.6735" stroke-miterlimit="10"/>
<path d="M50.7 61.9996H58.4C60.4 61.9996 62 60.3996 62 58.3996V58.1996C62 56.1996 60.4 54.5996 58.4 54.5996H50.7C48.7 54.5996 47.1 56.1996 47.1 58.1996V58.3996C47.1 60.3996 48.7 61.9996 50.7 61.9996Z" stroke="white" stroke-width="1.6735" stroke-miterlimit="10"/>
<path d="M57.1 27.1997C55.6 27.3997 54.1 30.2997 53.8 30.7997L53.4001 31.5997L50.4001 37.3997C49.4001 39.2997 50.1 41.4997 51.8 42.3997L52 42.4997C53.7 43.3997 55.9 42.6997 56.8 40.9997L60.9001 32.9997" stroke="white" stroke-width="1.6735" stroke-miterlimit="10" stroke-linecap="round" stroke-linejoin="round"/>
<path d="M91 36.3999V55.0999C91 55.0999 76.4 55.2999 76.1 55.4999C75.9 55.5999 73.7 61.0999 71.8 62.5999C71.7 62.6999 71.6 62.6999 71.5 62.6999L50.7 62.0999" stroke="white" stroke-width="1.6735" stroke-miterlimit="10" stroke-linecap="round" stroke-linejoin="round"/>
</svg>
