<svg width="73" height="89" viewBox="0 0 73 89" fill="none" xmlns="http://www.w3.org/2000/svg">
<path d="M48.5 35.0004H42.9L32.8 34.9004C30.8 34.9004 20.5 37.7004 20.5 48.5004C20.6 53.2004 22 59.8004 31.8 58.9004C31.8 58.9004 35.2 58.6004 39.1 52.8004H41.9C45.9 58.6004 49.2 58.9004 49.2 58.9004C59 59.9004 60.4 53.2004 60.5 48.5004C60.5 37.7004 50.5 35.0004 48.5 35.0004Z" stroke="white" stroke-width="1.6735" stroke-miterlimit="10" stroke-linecap="round" stroke-linejoin="round"/>
<path d="M30.3 43.6006V51.3006" stroke="white" stroke-width="1.6735" stroke-miterlimit="10" stroke-linecap="round" stroke-linejoin="round"/>
<path d="M26.5 47.5005H34.1" stroke="white" stroke-width="1.6735" stroke-miterlimit="10" stroke-linecap="round" stroke-linejoin="round"/>
<path d="M51 44.8003C51.8284 44.8003 52.5 44.1287 52.5 43.3003C52.5 42.4719 51.8284 41.8003 51 41.8003C50.1716 41.8003 49.5 42.4719 49.5 43.3003C49.5 44.1287 50.1716 44.8003 51 44.8003Z" stroke="white" stroke-width="1.6735" stroke-miterlimit="10"/>
<path d="M51.3 53.2002C52.1284 53.2002 52.8 52.5286 52.8 51.7002C52.8 50.8718 52.1284 50.2002 51.3 50.2002C50.4716 50.2002 49.8 50.8718 49.8 51.7002C49.8 52.5286 50.4716 53.2002 51.3 53.2002Z" stroke="white" stroke-width="1.6735" stroke-miterlimit="10"/>
<path d="M46.2 49.1006C47.0284 49.1006 47.7 48.429 47.7 47.6006C47.7 46.7722 47.0284 46.1006 46.2 46.1006C45.3716 46.1006 44.7 46.7722 44.7 47.6006C44.7 48.429 45.3716 49.1006 46.2 49.1006Z" stroke="white" stroke-width="1.6735" stroke-miterlimit="10"/>
<path d="M55.8 48.9004C56.6284 48.9004 57.3 48.2288 57.3 47.4004C57.3 46.572 56.6284 45.9004 55.8 45.9004C54.9716 45.9004 54.3 46.572 54.3 47.4004C54.3 48.2288 54.9716 48.9004 55.8 48.9004Z" stroke="white" stroke-width="1.6735" stroke-miterlimit="10"/>
<path d="M38.6 26.8002C45.6693 26.8002 51.4 21.0694 51.4 14.0002C51.4 6.93095 45.6693 1.2002 38.6 1.2002C31.5308 1.2002 25.8 6.93095 25.8 14.0002C25.8 21.0694 31.5308 26.8002 38.6 26.8002Z" stroke="white" stroke-width="1.6735" stroke-miterlimit="10"/>
<path d="M39.046 12.7039L39.2786 11.9001L39.2772 11.8997L39.046 12.7039ZM35.7534 11.1125L35.184 11.7257L35.1898 11.7309L35.7534 11.1125ZM35.9821 6.17366L36.5117 6.82147L36.5122 6.82105L35.9821 6.17366ZM41.6983 5.67063L41.3267 6.42032L41.3292 6.42157L41.6983 5.67063ZM43.3629 7.13398L42.6541 7.57872L42.6573 7.58366L43.3629 7.13398ZM43.9574 9.17354V10.0103H44.7941V9.17354H43.9574ZM42.1922 9.17354H41.3555V10.0103H42.1922V9.17354ZM41.424 7.28032L40.8626 7.90081L40.8667 7.90448L41.424 7.28032ZM37.2259 7.16142L37.7425 7.81966L37.7436 7.8188L37.2259 7.16142ZM37.1894 10.1247L36.6562 10.7697L36.6656 10.7773L37.1894 10.1247ZM39.5399 11.1491L39.3129 11.9545L39.3141 11.9548L39.5399 11.1491ZM42.1373 12.1826L41.7027 12.8976L41.711 12.9025L42.1373 12.1826ZM43.5275 13.4905L42.8092 13.9197L42.8131 13.9261L43.5275 13.4905ZM42.7227 17.8531L43.2324 18.5167L43.2354 18.5144L42.7227 17.8531ZM36.7869 18.3012L36.446 19.0654L36.4509 19.0676L36.7869 18.3012ZM34.9486 16.8562L34.2631 17.336L34.2663 17.3406L34.9486 16.8562ZM34.3084 14.78V13.9433H33.4716V14.78H34.3084ZM36.0735 14.78H36.9103V13.9433H36.0735V14.78ZM36.9607 16.6916L36.4404 17.347L36.4479 17.3528L36.9607 16.6916ZM41.5337 13.7648L41.0163 14.4225L41.0218 14.4267L41.5337 13.7648ZM39.2772 11.8997C37.8212 11.4812 36.8672 10.9955 36.3171 10.4941L35.1898 11.7309C36.0177 12.4855 37.2587 13.0608 38.8148 13.5081L39.2772 11.8997ZM36.3228 10.4993C35.8093 10.0225 35.5658 9.46378 35.5658 8.77112H33.8923C33.8923 9.93205 34.3317 10.9342 35.1841 11.7257L36.3228 10.4993ZM35.5658 8.77112C35.5658 7.98172 35.8643 7.35075 36.5117 6.82147L35.4525 5.52584C34.4292 6.36236 33.8923 7.46304 33.8923 8.77112H35.5658ZM36.5122 6.82105C37.1717 6.28104 38.0617 5.97691 39.2564 5.97691V4.30341C37.7682 4.30341 36.4753 4.68827 35.452 5.52626L36.5122 6.82105ZM39.2564 5.97691C40.0612 5.97691 40.7449 6.1319 41.3267 6.42031L42.07 4.92094C41.225 4.50206 40.2807 4.30341 39.2564 4.30341V5.97691ZM41.3292 6.42157C41.9225 6.71319 42.354 7.10041 42.6541 7.57871L44.0717 6.68926C43.5913 5.92371 42.9131 5.33535 42.0674 4.91969L41.3292 6.42157ZM42.6573 7.58366C42.9679 8.07118 43.1206 8.59501 43.1206 9.17354H44.7941C44.7941 8.27652 44.5505 7.44065 44.0686 6.68431L42.6573 7.58366ZM43.9574 8.33679H42.1922V10.0103H43.9574V8.33679ZM43.029 9.17354C43.029 8.17541 42.7023 7.29994 41.9812 6.65616L40.8667 7.90448C41.17 8.1753 41.3555 8.56198 41.3555 9.17354H43.029ZM41.9853 6.65984C41.2722 6.01466 40.323 5.74848 39.2564 5.74848V7.42197C40.0555 7.42197 40.5513 7.61919 40.8626 7.9008L41.9853 6.65984ZM39.2564 5.74848C38.2756 5.74848 37.3921 5.96551 36.7083 6.50404L37.7436 7.8188C38.0354 7.58907 38.5055 7.42197 39.2564 7.42197V5.74848ZM36.7093 6.50318C36.0024 7.058 35.6667 7.84088 35.6667 8.74368H37.3402C37.3402 8.29288 37.4861 8.02091 37.7425 7.81966L36.7093 6.50318ZM35.6667 8.74368C35.6667 9.56114 36.027 10.2495 36.6562 10.7696L37.7225 9.47981C37.4371 9.24387 37.3402 9.01155 37.3402 8.74368H35.6667ZM36.6656 10.7773C37.2648 11.2582 38.183 11.6361 39.3129 11.9545L39.7668 10.3437C38.6896 10.0402 38.0407 9.73508 37.7131 9.47217L36.6656 10.7773ZM39.3141 11.9548C40.3878 12.2557 41.1724 12.5753 41.7027 12.8976L42.572 11.4676C41.8584 11.0338 40.9114 10.6644 39.7657 10.3434L39.3141 11.9548ZM41.711 12.9025C42.2488 13.2211 42.5979 13.566 42.8093 13.9197L44.2458 13.0612C43.8596 12.4149 43.2819 11.8879 42.5637 11.4626L41.711 12.9025ZM42.8131 13.9261C43.0262 14.2755 43.1481 14.7082 43.1481 15.2556H44.8216C44.8216 14.4495 44.6386 13.7054 44.2419 13.0548L42.8131 13.9261ZM43.1481 15.2556C43.1481 16.0803 42.8437 16.7004 42.21 17.1918L43.2354 18.5144C44.2845 17.7009 44.8216 16.5894 44.8216 15.2556H43.1481ZM42.213 17.1895C41.5592 17.6917 40.6322 17.9858 39.3478 17.9858V19.6593C40.8804 19.6593 42.2033 19.3071 43.2324 18.5167L42.213 17.1895ZM39.3478 17.9858C38.5422 17.9858 37.8037 17.8334 37.1229 17.5349L36.4509 19.0676C37.3555 19.4642 38.3242 19.6593 39.3478 19.6593V17.9858ZM37.1279 17.5371C36.4497 17.2345 35.964 16.8409 35.6309 16.3718L34.2663 17.3406C34.799 18.0909 35.5389 18.6607 36.446 19.0654L37.1279 17.5371ZM35.6341 16.3763C35.3099 15.9132 35.1451 15.3901 35.1451 14.78H33.4716C33.4716 15.7187 33.7337 16.5797 34.2631 17.336L35.6341 16.3763ZM34.3084 15.6168H36.0735V13.9433H34.3084V15.6168ZM35.2368 14.78C35.2368 15.8208 35.6344 16.707 36.4405 17.3469L37.4809 16.0362C37.1042 15.7371 36.9103 15.349 36.9103 14.78H35.2368ZM36.4479 17.3528C37.2325 17.9612 38.2268 18.2234 39.3478 18.2234V16.5499C38.4811 16.5499 37.884 16.3487 37.4735 16.0303L36.4479 17.3528ZM39.3478 18.2234C40.3724 18.2234 41.2914 18.0168 41.9874 17.484L40.9702 16.1551C40.6785 16.3785 40.1768 16.5499 39.3478 16.5499V18.2234ZM41.9874 17.484C42.6997 16.9389 43.0564 16.172 43.0564 15.2739H41.3829C41.3829 15.6807 41.2458 15.9443 40.9702 16.1551L41.9874 17.484ZM43.0564 15.2739C43.0564 14.4004 42.736 13.6369 42.0456 13.1029L41.0218 14.4267C41.246 14.6001 41.3829 14.8426 41.3829 15.2739H43.0564ZM42.0511 13.1072C41.4573 12.6401 40.4916 12.2511 39.2786 11.9001L38.8134 13.5077C40.0027 13.8518 40.6955 14.1701 41.0164 14.4225L42.0511 13.1072Z" fill="white"/>
<path d="M38 3.7002V8.2002" stroke="white" stroke-width="1.6735" stroke-miterlimit="10"/>
<path d="M37.9 19.8003L38 23.8003" stroke="white" stroke-width="1.6735" stroke-miterlimit="10"/>
<path d="M15.1 60.3003H1.39999V87.6003H15.1V60.3003Z" stroke="white" stroke-width="1.6735" stroke-miterlimit="10"/>
<path d="M15.1 63.3005L22.1 63.0005C24.3 63.1005 25.9 63.7005 26.3 63.9005L41.3 68.1005C41.3 68.1005 44 68.9005 43.9 71.2005C48.5 70.3005 65.5 64.2005 65.5 64.2005C65.5 64.2005 69.6 62.1005 71.6 66.0005C72.5 68.1005 71.9 69.3005 64.9 74.5005C50.2 84.5005 51.1 83.9005 49.4 85.3005C47.8 86.5005 44.4 88.6005 35.4 87.6005C15.7 83.3005 15.4 83.0005 15.4 83.0005L15.1 63.3005Z" stroke="white" stroke-width="1.6735" stroke-miterlimit="10"/>
<path d="M43.9 71.2006C43.9 71.3006 41.9 75.8006 23.9 70.1006" stroke="white" stroke-width="1.6735" stroke-miterlimit="10"/>
</svg>
