<svg width="60" height="86" viewBox="0 0 60 86" fill="none" xmlns="http://www.w3.org/2000/svg">
<path d="M17 7H9.89999C4.99999 7 0.899994 11 0.899994 16V75.9C0.899994 80.8 4.89999 84.9 9.89999 84.9H50.1C55.1 84.9 59.2 80.8 59.1 75.9V16C59.1 11.1 55.1 7 50.1 7H41.5" stroke="white" stroke-width="1.6735" stroke-miterlimit="10"/>
<path d="M41.7 1.2002H17.3V12.5002H41.7V1.2002Z" stroke="white" stroke-width="1.6735" stroke-miterlimit="10"/>
<path d="M6.89999 19.9004H53.3" stroke="white" stroke-width="1.6735" stroke-miterlimit="10"/>
<path d="M6.89999 32.4004H53.3" stroke="white" stroke-width="1.6735" stroke-miterlimit="10"/>
<path d="M6.89999 46H53.3" stroke="white" stroke-width="1.6735" stroke-miterlimit="10"/>
<path d="M32 58.4004H53.3" stroke="white" stroke-width="1.6735" stroke-miterlimit="10"/>
<path d="M33.1 71.5H53.3" stroke="white" stroke-width="1.6735" stroke-miterlimit="10"/>
<path d="M18.2 78.7001C24.9931 78.7001 30.5 73.1932 30.5 66.4001C30.5 59.607 24.9931 54.1001 18.2 54.1001C11.4069 54.1001 5.89999 59.607 5.89999 66.4001C5.89999 73.1932 11.4069 78.7001 18.2 78.7001Z" stroke="white" stroke-width="1.6735" stroke-miterlimit="10"/>
<path d="M14.2 66.3C14.2 67 14.7 67.6 15.4 67.6H15.5C16.2 67.6 16.8 67 16.8 66.3C16.8 65.6 16.2 65 15.5 65C14.8 65.1 14.2 65.6 14.2 66.3Z" stroke="white" stroke-width="0.4781" stroke-miterlimit="10"/>
<path d="M9.39999 66C9.19999 66 9 66.2 9 66.4C9 66.6 9.19999 66.8 9.39999 66.8C9.59999 66.8 9.8 66.6 9.8 66.4C9.8 66.2 9.59999 66 9.39999 66Z" stroke="white" stroke-width="0.4781" stroke-miterlimit="10"/>
<path d="M14.1 58.9003C14.3 58.8003 14.4 58.5003 14.3 58.3003C14.2 58.1003 13.9 58.0003 13.7 58.1003C13.5 58.2003 13.4 58.4003 13.5 58.7003C13.6 58.9003 13.9 59.0003 14.1 58.9003Z" stroke="white" stroke-width="0.4781" stroke-miterlimit="10"/>
<path d="M15.4 61.1999C15.7 60.9999 15.8 60.6999 15.7 60.2999C15.6 59.8999 15.2 59.8999 14.8 59.9999C14.5 60.1999 14.4 60.4999 14.5 60.8999C14.7 61.1999 15.1 61.2999 15.4 61.1999Z" stroke="white" stroke-width="0.4781" stroke-miterlimit="10"/>
<path d="M11 62.7004C11.2 62.9004 11.6 62.8003 11.7 62.5003C11.9 62.3003 11.8 61.9003 11.5 61.8003C11.3 61.6003 10.9 61.7003 10.8 62.0003C10.7 62.2003 10.8 62.5004 11 62.7004Z" stroke="white" stroke-width="0.4781" stroke-miterlimit="10"/>
<path d="M11.8 65.8003C11.4 65.8003 11.1 66.0003 11.1 66.4003C11.1 66.8003 11.3 67.1003 11.7 67.1003C12.1 67.1003 12.4 66.9003 12.4 66.5003C12.4 66.1003 12.1 65.8003 11.8 65.8003Z" stroke="white" stroke-width="0.4781" stroke-miterlimit="10"/>
<path d="M11.1 70.0002C10.8 70.1002 10.7 70.4002 10.9 70.7002C11 71.0002 11.3 71.1002 11.6 70.9002C11.9 70.8002 12 70.5002 11.8 70.2002C11.7 70.0002 11.3 69.9002 11.1 70.0002Z" stroke="white" stroke-width="0.4781" stroke-miterlimit="10"/>
<path d="M13.6 64.4002C13.9 64.6002 14.4 64.5002 14.6 64.2002C14.8 63.9002 14.7 63.4002 14.4 63.2002C14.1 63.0002 13.6 63.1002 13.4 63.4002C13.1 63.7002 13.2 64.2002 13.6 64.4002Z" stroke="white" stroke-width="0.4781" stroke-miterlimit="10"/>
<path d="M21.4 61.1001C21.7 61.3001 22.1 61.2 22.3 60.9C22.5 60.6 22.4 60.2 22.1 60C21.8 59.8 21.4 59.9001 21.2 60.2001C21.1 60.5001 21.1 60.9001 21.4 61.1001Z" stroke="white" stroke-width="0.4781" stroke-miterlimit="10"/>
<path d="M22.7 58.9C22.9 59 23.1 58.9999 23.3 58.7999C23.4 58.5999 23.4 58.4 23.2 58.2C23 58.1 22.8 58.0999 22.6 58.2999C22.5 58.4999 22.6 58.7 22.7 58.9Z" stroke="white" stroke-width="0.4781" stroke-miterlimit="10"/>
<path d="M21.5 65.1001C20.8 65.1001 20.2 65.6001 20.2 66.3001C20.2 67.0001 20.7 67.6001 21.4 67.6001H21.5C22.2 67.6001 22.8 67.0001 22.8 66.3001C22.7 65.7001 22.2 65.1001 21.5 65.1001Z" stroke="white" stroke-width="0.4781" stroke-miterlimit="10"/>
<path d="M15.8 64.1003C16 64.5003 16.5 64.8003 16.9 64.8003C17.6 64.8003 18.2 64.2003 18.2 63.5003C18.2 63.3003 18.2 63.1003 18.1 62.9003C17.8 62.3003 17 62.0003 16.4 62.3003C15.7 62.7003 15.5 63.4003 15.8 64.1003Z" stroke="white" stroke-width="0.4781" stroke-miterlimit="10"/>
<path d="M25.8 62.7004C26.1 62.6004 26.2 62.2003 26 62.0003C25.9 61.7003 25.5 61.6003 25.3 61.8003C25 61.9003 24.9 62.2003 25.1 62.5003C25.2 62.7003 25.5 62.8004 25.8 62.7004Z" stroke="white" stroke-width="0.4781" stroke-miterlimit="10"/>
<path d="M22.6 63.1C22.2 63.3 22.1 63.7 22.3 64.1C22.5 64.5 22.9 64.6 23.3 64.4C23.7 64.2 23.8 63.8 23.6 63.4C23.4 63.1 22.9 62.9 22.6 63.1Z" stroke="white" stroke-width="0.4781" stroke-miterlimit="10"/>
<path d="M18.4 58.7001C18.7 58.7001 18.9 58.5001 19 58.2001C19.1 57.9001 18.8 57.7001 18.5 57.6001C18.2 57.6001 18 57.8001 17.9 58.1001C17.9 58.4001 18.1 58.6001 18.4 58.7001Z" stroke="white" stroke-width="0.4781" stroke-miterlimit="10"/>
<path d="M18.4 62C18.8 62 19.2 61.7 19.2 61.3C19.2 60.9 18.9 60.5 18.5 60.5C18.1 60.5 17.7 60.8 17.7 61.2C17.7 61.6 18 61.9 18.4 62Z" stroke="white" stroke-width="0.4781" stroke-miterlimit="10"/>
<path d="M14.3 69.6002C14.7 69.4002 14.8 69.0002 14.6 68.6002C14.4 68.2002 14 68.1002 13.6 68.3002C13.2 68.5002 13.1 68.9002 13.3 69.3002C13.5 69.7002 14 69.8002 14.3 69.6002Z" stroke="white" stroke-width="0.4781" stroke-miterlimit="10"/>
<path d="M18.9 63.1C18.5 63.7 18.7 64.5 19.3 64.9C19.9 65.3 20.7 65.1 21.1 64.5C21.5 63.9 21.3 63.1 20.7 62.7C20.5 62.6 20.2 62.5 20 62.5C19.5 62.5 19.1 62.7 18.9 63.1Z" stroke="white" stroke-width="0.4781" stroke-miterlimit="10"/>
<path d="M21.1 68.4003C20.8 67.8003 20 67.5003 19.4 67.8003C18.8 68.1003 18.5 68.9003 18.8 69.5003C19.1 70.1003 19.9 70.4003 20.5 70.1003C21.2 69.8003 21.4 69.0003 21.1 68.4003Z" stroke="white" stroke-width="0.4781" stroke-miterlimit="10"/>
<path d="M23.3 68.3003C23 68.1003 22.5 68.2003 22.3 68.5003C22.1 68.8003 22.2 69.3003 22.5 69.5003C22.8 69.7003 23.3 69.6003 23.5 69.3003C23.8 69.0003 23.7 68.5003 23.3 68.3003Z" stroke="white" stroke-width="0.4781" stroke-miterlimit="10"/>
<path d="M25.8 66.4002C25.8 66.0002 25.6 65.7002 25.2 65.7002C24.8 65.7002 24.5 65.9002 24.5 66.3002C24.5 66.7002 24.7 67.0002 25.1 67.0002C25.5 67.0002 25.8 66.7002 25.8 66.4002Z" stroke="white" stroke-width="0.4781" stroke-miterlimit="10"/>
<path d="M27.5 65.8999C27.3 65.8999 27.1 66.0999 27.1 66.2999C27.1 66.4999 27.3 66.6999 27.5 66.6999C27.7 66.6999 27.9 66.4999 27.9 66.2999C27.9 66.0999 27.8 65.9999 27.5 65.8999Z" stroke="white" stroke-width="0.4781" stroke-miterlimit="10"/>
<path d="M25.9 70C25.7 69.8 25.3 69.9001 25.2 70.2001C25 70.4001 25.1 70.8 25.4 70.9C25.6 71.1 26 71.0001 26.1 70.7001C26.2 70.5001 26.1 70.2 25.9 70Z" stroke="white" stroke-width="0.4781" stroke-miterlimit="10"/>
<path d="M14.2 73.9002C14 73.8002 13.8 73.8002 13.6 74.0002C13.5 74.2002 13.5 74.4002 13.7 74.6002C13.9 74.7002 14.1 74.7002 14.3 74.5002C14.4 74.3002 14.3 74.0002 14.2 73.9002Z" stroke="white" stroke-width="0.4781" stroke-miterlimit="10"/>
<path d="M22.8 73.8C22.6 73.9 22.5 74.2 22.6 74.4C22.7 74.6 23 74.7 23.2 74.6C23.4 74.5 23.5 74.3 23.4 74C23.3 73.8 23 73.7 22.8 73.8Z" stroke="white" stroke-width="0.4781" stroke-miterlimit="10"/>
<path d="M18 69.7C18.4 69.1 18.2 68.3 17.6 67.9C17 67.5 16.2 67.7 15.8 68.3C15.4 68.9 15.6 69.7 16.2 70.1C16.4 70.2 16.7 70.3 16.9 70.3C17.4 70.3 17.8 70 18 69.7Z" stroke="white" stroke-width="0.4781" stroke-miterlimit="10"/>
<path d="M15.5 71.6002C15.2 71.4002 14.8 71.5001 14.6 71.8001C14.4 72.1001 14.5 72.5002 14.8 72.7002C15.1 72.9002 15.5 72.8001 15.7 72.5001C15.8 72.2001 15.8 71.8002 15.5 71.6002Z" stroke="white" stroke-width="0.4781" stroke-miterlimit="10"/>
<path d="M18.4 74.1001C18.1 74.1001 17.9 74.3001 17.8 74.6001C17.7 74.9001 18 75.1001 18.3 75.2001C18.6 75.2001 18.8 75.0001 18.9 74.7001C19 74.3001 18.7 74.1001 18.4 74.1001Z" stroke="white" stroke-width="0.4781" stroke-miterlimit="10"/>
<path d="M18.4 70.8003C18 70.8003 17.6 71.1003 17.6 71.5003C17.6 71.9003 17.9 72.3003 18.3 72.3003C18.7 72.3003 19.1 72.0003 19.1 71.6003C19.2 71.2003 18.9 70.8003 18.4 70.8003Z" stroke="white" stroke-width="0.4781" stroke-miterlimit="10"/>
<path d="M21.5 71.6C21.2 71.8 21.1 72.1 21.2 72.5C21.3 72.9 21.7 72.9 22.1 72.8C22.4 72.6 22.5 72.3 22.4 71.9C22.2 71.6 21.8 71.4 21.5 71.6Z" stroke="white" stroke-width="0.4781" stroke-miterlimit="10"/>
</svg>
