<svg width="24" height="20" viewBox="0 0 24 20" fill="#ffffff" xmlns="http://www.w3.org/2000/svg">
<path d="M23.4447 3.26512C23.5123 3.17088 23.4124 3.04921 23.3043 3.09113C22.5358 3.38901 21.7326 3.58999 20.9133 3.68904C21.8255 3.14406 22.5295 2.31447 22.9198 1.33229C22.9596 1.23224 22.8503 1.14289 22.7561 1.19494C21.9082 1.66317 20.9938 2.00033 20.044 2.19451C20.0043 2.20264 19.9633 2.1891 19.9354 2.15965C19.2226 1.40752 18.2843 0.90675 17.2614 0.733699C16.2171 0.557013 15.1436 0.731957 14.2094 1.23109C13.2752 1.73023 12.5331 2.52532 12.0994 3.49168C11.6871 4.4105 11.5759 5.43473 11.7792 6.41838C11.795 6.4947 11.7352 6.56676 11.6575 6.56192C9.8094 6.44714 8.00375 5.95559 6.35174 5.11688C4.70392 4.28029 3.24474 3.11647 2.06305 1.69718C2.01061 1.63419 1.91121 1.64235 1.873 1.71486C1.5053 2.4126 1.31278 3.1903 1.3133 3.98071C1.31181 4.76748 1.50489 5.54242 1.87535 6.23653C2.24581 6.93064 2.78216 7.52237 3.43664 7.95904C2.74256 7.94015 2.06201 7.76856 1.44309 7.45746C1.36333 7.41736 1.26766 7.47445 1.27181 7.56363C1.32007 8.60107 1.70093 9.64259 2.36017 10.4417C3.06171 11.292 4.03544 11.874 5.11664 12.089C4.70044 12.2157 4.26833 12.2825 3.8333 12.2874C3.59654 12.2846 3.36024 12.2671 3.12576 12.2351C3.03882 12.2232 2.96783 12.3058 2.99827 12.3881C3.32076 13.2601 3.89047 14.0211 4.63956 14.5766C5.44042 15.1704 6.40648 15.4998 7.40331 15.519C5.72004 16.8435 3.64184 17.5664 1.49997 17.5724C1.27989 17.5731 1.0599 17.566 0.840433 17.551C0.716757 17.5426 0.659876 17.7074 0.766481 17.7706C2.85338 19.0091 5.23866 19.6637 7.67164 19.6607C9.46795 19.6794 11.25 19.3399 12.9136 18.6621C14.5772 17.9844 16.0892 16.9819 17.361 15.7133C18.6329 14.4447 19.6393 12.9353 20.3213 11.2734C21.0033 9.61153 21.3474 7.83039 21.3333 6.03404V5.47424C21.3333 5.4374 21.3507 5.40277 21.3801 5.38057C22.1715 4.78307 22.8674 4.06973 23.4447 3.26512Z"/>
</svg>
