<?xml version="1.0" standalone="no"?>
<!DOCTYPE svg PUBLIC "-//W3C//DTD SVG 20010904//EN"
 "http://www.w3.org/TR/2001/REC-SVG-20010904/DTD/svg10.dtd">
<svg version="1.0" xmlns="http://www.w3.org/2000/svg"
 width="199.000000pt" height="199.000000pt" viewBox="0 0 199.000000 199.000000"
 preserveAspectRatio="xMidYMid meet">
<metadata>
Created by potrace 1.14, written by Peter Selinger 2001-2017
</metadata>
<g transform="translate(0.000000,199.000000) scale(0.100000,-0.100000)"
fill="#000000" stroke="none">
<path d="M665 1633 c-50 -27 -623 -463 -645 -490 -22 -28 -26 -64 -9 -94 5
-11 209 -169 452 -351 394 -296 447 -333 492 -341 93 -17 102 -11 575 343 241
181 444 338 449 349 15 28 14 63 -4 89 -18 24 -606 471 -653 496 -35 18 -88
21 -127 6 -14 -5 -61 -36 -103 -68 -42 -32 -82 -61 -88 -65 -6 -4 -50 23 -98
58 -47 36 -97 70 -112 75 -37 15 -95 11 -129 -7z m147 -57 c63 -43 138 -100
138 -106 0 -3 -37 -34 -83 -68 -75 -55 -87 -61 -119 -56 -50 9 -104 -19 -223
-113 -158 -124 -161 -158 -20 -262 47 -35 85 -66 85 -71 0 -8 -145 -120 -156
-120 -4 0 -92 64 -196 141 -165 124 -188 145 -188 169 0 25 35 54 322 269 300
225 324 241 363 241 28 0 54 -8 77 -24z m807 -217 c284 -214 321 -245 321
-269 0 -24 -24 -46 -188 -169 -104 -77 -192 -141 -196 -141 -11 0 -156 112
-156 120 0 5 36 34 80 67 126 92 137 141 46 216 -160 135 -226 172 -288 164
-33 -4 -45 1 -118 55 -44 33 -80 64 -80 68 0 4 39 35 86 69 138 98 110 108
493 -180z m-507 -10 l33 -28 -45 -40 c-41 -37 -50 -40 -103 -41 -53 0 -62 3
-103 37 -24 21 -44 40 -44 44 0 4 32 32 71 63 l72 55 43 -31 c23 -17 58 -43
76 -59z m-282 -91 c93 -65 100 -68 163 -68 62 0 95 13 182 76 77 55 106 48
250 -61 102 -76 116 -90 113 -113 -2 -21 -53 -63 -258 -219 -140 -107 -262
-198 -272 -203 -13 -8 -69 30 -270 181 -139 105 -261 199 -272 209 -35 33 -15
61 110 154 143 105 160 108 254 44z m-109 -449 c45 -34 77 -65 72 -69 -4 -4
-41 -33 -82 -64 l-74 -56 -36 27 c-20 15 -57 44 -83 64 l-48 37 82 61 c45 34
83 61 85 61 2 0 40 -28 84 -61z m724 -5 c42 -31 74 -58 73 -59 -2 -1 -40 -29
-84 -63 l-82 -61 -81 61 c-68 50 -80 63 -69 74 39 38 145 112 155 109 7 -2 47
-30 88 -61z m-549 -125 c30 -23 53 -45 52 -49 -7 -19 -151 -121 -164 -116 -24
9 -103 71 -101 79 2 6 147 125 155 126 2 1 28 -18 58 -40z m357 -36 c31 -24
57 -46 57 -48 0 -3 -25 -23 -55 -46 l-54 -41 -78 57 c-43 31 -78 61 -78 66 0
5 23 27 50 48 57 45 49 47 158 -36z m-179 -95 c39 -29 73 -54 76 -56 3 -2 -17
-24 -43 -48 -48 -43 -51 -44 -116 -44 -66 0 -68 1 -109 43 l-43 44 73 56 c40
31 77 56 82 56 5 1 41 -22 80 -51z"/>
</g>
</svg>
