<?xml version="1.0" standalone="no"?>
<!DOCTYPE svg PUBLIC "-//W3C//DTD SVG 20010904//EN"
 "http://www.w3.org/TR/2001/REC-SVG-20010904/DTD/svg10.dtd">
<svg version="1.0" xmlns="http://www.w3.org/2000/svg"
 width="260.000000pt" height="260.000000pt" viewBox="0 0 260.000000 260.000000"
 preserveAspectRatio="xMidYMid meet">
<metadata>
Created by potrace 1.14, written by Peter Selinger 2001-2017
</metadata>
<g transform="translate(0.000000,260.000000) scale(0.100000,-0.100000)"
fill="#000000" stroke="none">
<path d="M929 2087 c-34 -13 -734 -531 -792 -586 -33 -32 -45 -88 -27 -131 10
-24 141 -128 535 -425 287 -216 536 -400 553 -409 42 -22 172 -22 214 0 50 26
1065 791 1082 816 9 12 16 42 16 66 0 36 -6 49 -37 81 -21 22 -200 161 -399
309 -396 297 -410 305 -501 282 -32 -8 -84 -38 -156 -91 -63 -46 -113 -76
-120 -72 -7 3 -53 37 -103 74 -50 36 -100 71 -111 77 -34 19 -115 23 -154 9z
m124 -69 c18 -9 164 -115 190 -138 4 -4 -36 -40 -89 -80 -95 -71 -100 -73
-150 -71 -72 3 -102 -12 -256 -128 -137 -103 -158 -127 -158 -184 0 -49 26
-80 128 -156 51 -38 93 -72 93 -76 0 -4 -41 -38 -91 -75 l-92 -69 -229 172
c-213 159 -229 174 -229 203 0 29 23 48 377 315 207 156 384 287 392 291 26
11 91 9 114 -4z m1004 -281 c210 -158 384 -295 387 -304 4 -9 4 -24 1 -33 -3
-10 -94 -85 -203 -166 -108 -81 -210 -158 -227 -170 l-30 -23 -87 67 c-48 37
-88 71 -90 76 -2 5 42 43 97 85 115 88 134 121 112 188 -10 31 -36 56 -147
141 -74 58 -150 111 -168 119 -19 8 -59 13 -92 12 -57 -2 -58 -2 -147 67 -49
38 -91 72 -94 76 -4 6 85 77 168 134 32 21 47 25 89 22 48 -4 65 -15 431 -291z
m-660 26 l85 -66 -48 -43 c-49 -43 -49 -43 -129 -44 l-81 0 -44 45 c-24 24
-40 48 -36 52 19 20 152 121 159 122 5 1 47 -29 94 -66z m-286 -154 c85 -63
125 -79 194 -79 69 0 109 16 194 79 71 52 112 65 159 52 44 -13 292 -202 298
-228 3 -12 2 -28 -3 -37 -4 -8 -152 -123 -327 -254 l-320 -240 -317 239 c-175
131 -323 248 -329 259 -7 14 -8 26 0 39 14 26 255 211 288 222 47 14 94 -1
163 -52z m-143 -535 c48 -36 87 -69 87 -74 0 -8 -169 -140 -180 -140 -12 0
-180 132 -180 141 0 11 164 138 178 139 4 0 47 -30 95 -66z m863 0 c49 -36 89
-70 89 -74 0 -4 -41 -38 -90 -75 l-91 -68 -33 24 c-113 82 -155 115 -155 119
0 5 180 140 187 140 3 0 45 -30 93 -66z m-638 -172 l58 -44 -92 -69 c-51 -38
-95 -69 -98 -69 -12 1 -122 89 -121 97 1 14 175 141 185 135 6 -3 36 -25 68
-50z m487 -87 c0 -3 -98 -77 -116 -88 -10 -6 -185 115 -192 133 -2 4 25 28 59
53 l61 46 94 -71 c52 -39 94 -72 94 -73z m-271 -70 l82 -59 -53 -48 -53 -47
-80 -1 -81 0 -47 48 -47 48 88 65 c48 37 92 64 98 60 5 -3 47 -33 93 -66z"/>
</g>
</svg>
